<?xml version="1.0" encoding="UTF-8"?>
<!DOCTYPE svg PUBLIC "-//W3C//DTD SVG 1.1//EN" "http://www.w3.org/Graphics/SVG/1.1/DTD/svg11.dtd">
<!-- Creator: CorelDRAW 2017 -->
<svg xmlns="http://www.w3.org/2000/svg" xml:space="preserve" width="157.474mm" height="19.1081mm" version="1.1" style="shape-rendering:geometricPrecision; text-rendering:geometricPrecision; image-rendering:optimizeQuality; fill-rule:evenodd; clip-rule:evenodd"
viewBox="0 0 15156 1839"
 xmlns:xlink="http://www.w3.org/1999/xlink">
 <defs>
  <style type="text/css">
   <![CDATA[
    .fil1 {fill:#003869}
    .fil0 {fill:#00CCFF}
   ]]>
  </style>
 </defs>
 <g id="Layer_x0020_1">
  <metadata id="CorelCorpID_0Corel-Layer"/>
  <path class="fil0" d="M3522 1146l641 -1143 473 0 -628 1120c-80,142 -255,198 -396,109 -35,-22 -65,-52 -91,-86zm-1748 -450l-641 1143 -473 0 627 -1119c80,-142 257,-201 396,-110 35,23 65,52 91,86zm1573 462c50,90 113,159 184,203 136,86 324,86 460,0 71,-45 133,-113 184,-203l647 -1155 473 0 -760 1357c-84,150 -194,268 -324,350 -273,172 -627,172 -899,0 -130,-82 -240,-200 -324,-350 -179,-319 -365,-634 -544,-953 -89,-159 -210,-297 -363,-397 193,-26 394,14 564,122 130,82 240,200 324,350l379 676zm-1398 -474c-50,-90 -113,-159 -184,-203 -136,-86 -324,-86 -460,0 -71,45 -133,113 -184,203l-647 1155 -473 0 760 -1357c84,-150 194,-268 324,-350 273,-172 627,-172 899,0 130,82 240,200 324,350 179,319 365,634 544,953 89,159 210,297 363,397 -193,26 -394,-14 -564,-122 -130,-82 -240,-200 -324,-350l-379 -676z"/>
  <path class="fil1" d="M8511 0l1908 0 0 388 -1908 0 0 -388zm-607 1453l-324 -783c-32,-78 -81,-143 -140,-186 -52,-37 -115,-59 -186,-59l-355 0c-93,0 -177,38 -238,99 -61,61 -99,146 -99,238l0 1076 -422 0 0 -1076c0,-209 85,-399 223,-537 138,-138 327,-223 537,-223l355 0c163,0 309,51 431,140 124,90 221,217 284,367l389 940 2062 0 0 388c-634,0 -1304,0 -1939,0 -258,0 -478,-147 -577,-385zm2824 -2l1908 0 0 388 -1908 0 0 -388zm0 -724l1908 0 0 388 -1908 0 0 -388zm-2217 0l1908 0 0 388 -1908 0 0 -388zm6191 -728l-482 1168c-32,78 -80,143 -140,186 -52,37 -115,59 -186,59 -71,0 -134,-22 -186,-59 -60,-43 -108,-108 -140,-186l-324 -783c-99,-238 -319,-385 -577,-385 -675,0 -1263,0 -1938,0l0 388 2062 0 389 940c62,150 159,277 284,367 123,88 269,140 431,140 163,0 309,-51 431,-140 124,-90 221,-217 284,-367l548 -1328 -455 0z"/>
 </g>
</svg>
