<?xml version="1.0" encoding="utf-8"?>
<!-- Generator: Adobe Illustrator 19.1.0, SVG Export Plug-In . SVG Version: 6.00 Build 0)  -->
<!DOCTYPE svg PUBLIC "-//W3C//DTD SVG 1.1//EN" "http://www.w3.org/Graphics/SVG/1.1/DTD/svg11.dtd">
<svg version="1.1" id="Layer_1" xmlns="http://www.w3.org/2000/svg" xmlns:xlink="http://www.w3.org/1999/xlink" x="0px" y="0px"
	 viewBox="0 0 250 250" enable-background="new 0 0 250 250" xml:space="preserve">
<g opacity="0.5">
	<g>
		<polygon fill="#6F5243" points="194.607,79.364 194.611,79.373 194.613,79.374 		"/>
		<polygon fill="#6F5243" points="46.443,187.747 46.44,187.746 46.439,187.746 		"/>
		<polygon fill="#6F5243" points="35.035,179.446 35.038,179.45 35.037,179.448 		"/>
		<polygon fill="#6F5243" points="35.042,179.455 35.044,179.456 35.038,179.45 		"/>
		<polygon fill="#6F5243" points="29,169.917 28.993,169.901 28.991,169.899 		"/>
		<polygon fill="#6F5243" points="28.394,168.365 28.394,168.36 28.392,168.358 		"/>
		<polygon fill="#6F5243" points="36.124,180.601 36.137,180.614 36.12,180.595 36.107,180.585 		"/>
		<path fill="#5C5C5C" d="M237.878,168.291c-0.067-0.407-0.15-0.793-0.242-1.153c-0.059-0.24-0.137-0.477-0.226-0.704
			c-0.171-0.531-0.361-1.056-0.609-1.548l-0.004-0.009c-0.51-1.019-1.218-1.972-2.074-2.742c-0.849-0.771-1.826-1.339-2.78-1.701
			l-0.03-0.013c-1.012-0.38-1.982-0.542-2.848-0.598c-0.253-0.015-0.491-0.01-0.727-0.007c0.508-4.777-1.29-8.154-2.374-9.703
			c0.061-0.072,0.124-0.146,0.183-0.218c1.018-1.262,1.868-2.453,2.563-3.63l0.129-0.235c0.548-1.037,0.864-2.07,1.033-3.002
			c0.143-0.802,0.175-1.513,0.165-2.159h0.008l0.002-0.039l-0.008-0.092l0.002-0.2l-0.015,0.002l-0.015-0.222h0.004l-0.011-0.132
			c-0.013-0.131-0.025-0.266-0.042-0.409c-0.027-0.264-0.063-0.537-0.114-0.834c-0.242-1.43-0.734-3.266-1.929-5.174
			c-0.599-0.95-1.379-1.905-2.367-2.758c-0.982-0.852-2.169-1.592-3.493-2.129l0.008,0.002c-0.095-0.04-0.173-0.077-0.261-0.115
			c-3.042-3.468-6.345-6.039-9.228-7.941c-1.494-0.986-2.877-1.793-4.047-2.447c-1.164-0.648-2.135-1.154-2.683-1.461l0.008,0.002
			c-1.252-0.698-2.165-1.098-2.603-1.277c-1.008-0.455-1.766-0.824-2.224-1.088c-0.361-0.208-0.54-0.348-0.607-0.405l-0.042-0.038
			c-0.004-0.008-0.049-0.074-0.131-0.322c-0.082-0.247-0.192-0.672-0.295-1.294c-0.167-0.978-0.31-2.421-0.438-4.336
			c-0.209-3.076-0.388-7.337-0.74-13.097c-0.106-1.832-0.301-3.546-0.569-5.152c-0.428-2.575-1.054-4.877-1.861-6.935l-0.002-0.011
			c-0.181-0.468-0.377-0.927-0.58-1.376l-0.002-0.004l-0.004-0.007c-0.154-0.334-0.282-0.585-0.361-0.747l0.004,0.009
			c-0.146-0.297-0.299-0.591-0.46-0.888l-0.008-0.013c-0.08-0.144-0.181-0.33-0.316-0.561l-0.004-0.005l-0.002-0.004
			c-0.255-0.437-0.54-0.904-0.885-1.402l-0.095-0.133l-0.173-0.234l-0.12-0.156c-0.626-0.793-1.277-1.507-1.942-2.163
			c-0.455-1.279-1.202-3.16-2.314-5.266c-0.986-1.852-2.253-3.885-3.935-5.837c-0.584-0.673-1.235-1.33-1.935-1.964l0.177-0.237
			c0.251-0.335,6.176-8.318,10.36-18.24c7.797-18.493,3.175-28.633-2.074-33.883l-0.147-0.147l-0.158-0.135
			c-4.966-4.307-11.263-6.492-18.716-6.492c-15.438,0-31.703,9.598-35.947,12.279l-9.319-8.033l-0.036-0.03
			c-0.826-0.706-1.717-1.317-2.66-1.835c-0.943-0.518-1.94-0.943-2.973-1.274c-2.071-0.664-4.29-0.966-6.611-0.967
			c-4.656,0.006-9.737,1.195-15.159,3.328c-8.125,3.208-17.029,8.573-26.146,15.708c-9.112,7.137-18.424,16.049-27.258,26.375
			C35.753,61.252,27.152,74.243,21.212,86.297c-2.969,6.028-5.275,11.823-6.85,17.243c-1.571,5.423-2.42,10.469-2.422,15.043
			c0.001,3.323,0.45,6.407,1.462,9.176c0.44,1.212,1.003,2.358,1.672,3.427c0.86,1.376,1.903,2.619,3.144,3.68l0.031,0.026
			l9.701,7.923l1.073,0.876l-0.041,0.103c-0.081,0.192-0.156,0.388-0.233,0.582c-0.115,0.29-0.228,0.579-0.336,0.87
			c-0.071,0.199-0.139,0.398-0.207,0.597c-0.101,0.296-0.201,0.591-0.294,0.889c-0.062,0.2-0.122,0.4-0.181,0.603
			c-0.088,0.303-0.174,0.606-0.253,0.911c-0.053,0.202-0.104,0.403-0.154,0.606c-0.075,0.309-0.145,0.624-0.212,0.936
			c-0.043,0.202-0.086,0.404-0.125,0.607c-0.062,0.319-0.116,0.637-0.168,0.959c-0.016,0.089-0.034,0.176-0.048,0.265
			c-0.018,0.113-0.033,0.227-0.05,0.342c-0.048,0.328-0.087,0.658-0.124,0.988c-0.023,0.198-0.049,0.397-0.068,0.596
			c-0.014,0.145-0.026,0.288-0.038,0.432c-0.017,0.205-0.029,0.408-0.043,0.612c-0.012,0.185-0.029,0.369-0.037,0.556
			c-0.021,0.412-0.03,0.829-0.034,1.243c-0.002,0.122-0.009,0.243-0.009,0.365l0,0.034l0.005,0.11c0,0.27,0.01,0.542,0.017,0.814
			c0.011,0.426,0.031,0.852,0.06,1.282c0.012,0.188,0.026,0.379,0.042,0.569c0.011,0.146,0.017,0.292,0.031,0.44
			c0.028,0.299,0.069,0.598,0.105,0.899c0.022,0.18,0.043,0.361,0.068,0.542c0.015,0.107,0.024,0.215,0.041,0.322l0.003,0.038
			l0.004,0.024c0.03,0.192,0.059,0.386,0.091,0.576c0.035,0.211,0.082,0.417,0.12,0.626c0.027,0.155,0.05,0.311,0.081,0.464
			c0.028,0.137,0.05,0.24,0.07,0.328c0.041,0.197,0.087,0.393,0.132,0.588c0.048,0.224,0.101,0.461,0.17,0.735l0.006,0.022
			l-0.001-0.004c0.028,0.106,0.048,0.176,0.071,0.26c0.058,0.221,0.121,0.441,0.183,0.659c0.053,0.196,0.114,0.417,0.198,0.69
			c0.033,0.11,0.064,0.203,0.09,0.283c0.042,0.131,0.086,0.262,0.13,0.391l0.003,0.011l0.006,0.019l0.056,0.166
			c0.059,0.18,0.133,0.407,0.244,0.715c0.029,0.083,0.051,0.137,0.078,0.207c0.074,0.194,0.132,0.342,0.173,0.445l0.075,0.198
			c0.025,0.065,0.049,0.126,0.084,0.218l0.073,0.182l0.062,0.154l0.055,0.137c0.029,0.07,0.051,0.117,0.078,0.181l0.075,0.186
			c0.065,0.147,0.135,0.289,0.201,0.435c0.074,0.169,0.173,0.397,0.315,0.697l-0.023-0.049l0.027,0.056
			c0.035,0.072,0.058,0.119,0.089,0.18c0.122,0.248,0.221,0.44,0.27,0.539l0.006,0.01l0,0.002c0.083,0.163,0.202,0.404,0.367,0.714
			l0.002,0.004l0.004,0.008l-0.005-0.008l0.017,0.029l-0.008-0.013l0.071,0.126c0.105,0.192,0.187,0.34,0.253,0.454l0.082,0.144
			l0.014,0.024c0.042,0.073,0.097,0.171,0.163,0.286c0.062,0.108,0.134,0.232,0.22,0.377l-0.008-0.012l0.085,0.136
			c0.081,0.132,0.158,0.257,0.223,0.358c0.062,0.096,0.118,0.184,0.163,0.254l-0.007-0.011l0.011,0.015h0l0.007,0.011l-0.007-0.011
			c0.098,0.158,0.224,0.36,0.391,0.609l0.015,0.025l0.009,0.012l0.072,0.105c0.07,0.102,0.14,0.204,0.2,0.289
			c0.086,0.124,0.162,0.229,0.227,0.32l0.012,0.018c0.089,0.126,0.215,0.308,0.387,0.542l0.011,0.016l0.013,0.016l0.068,0.091
			c0.072,0.092,0.139,0.183,0.202,0.264c0.109,0.14,0.207,0.264,0.288,0.369l0.022,0.029l0.006,0.008
			c0.08,0.101,0.205,0.263,0.38,0.479l0.016,0.019l0.051,0.063c0.087,0.105,0.169,0.203,0.247,0.293
			c0.121,0.143,0.232,0.27,0.327,0.38l-0.016-0.018c0.101,0.117,0.244,0.284,0.433,0.496l0.016,0.018l0.01,0.012l-0.019-0.022
			l0.02,0.024l0.016,0.016l-0.003-0.004l0.007,0.008l0.001,0.002c0.09,0.1,0.182,0.197,0.274,0.297
			c0.126,0.136,0.245,0.262,0.35,0.371l-0.007-0.007c0.1,0.107,0.23,0.242,0.382,0.399l0.035,0.033
			c0.115,0.118,0.224,0.226,0.332,0.332c0.138,0.136,0.272,0.264,0.396,0.38l0.043,0.042c0.083,0.079,0.182,0.174,0.312,0.295
			l0.059,0.054v0.002l0.02,0.018l0.032,0.03h0c0.196,0.179,0.374,0.335,0.55,0.488l0.187,0.168l-0.001-0.001l0.004,0.003
			l0.007,0.007l0.015,0.012l-0.004-0.004c0.087,0.076,0.196,0.171,0.326,0.281l0.042,0.037l0.004,0.003l0.006,0.004l0.025,0.02
			l-0.006-0.006c0.212,0.179,0.418,0.342,0.625,0.506c0.083,0.067,0.171,0.142,0.255,0.205l0.013,0.01
			c0.041,0.032,0.143,0.114,0.306,0.24l0.029,0.022l0.095,0.075c0.249,0.19,0.505,0.37,0.758,0.552l0.061,0.046l0.014,0.011
			l0.008,0.005l0.009,0.006c0.063,0.046,0.169,0.122,0.32,0.227l0.019,0.012c0.325,0.224,0.651,0.44,0.974,0.647l0.018,0.011
			l0.183,0.116l0.127,0.08l-0.007-0.004l0.186,0.112c0.272,0.167,0.54,0.33,0.798,0.479l0.071,0.044l0.032,0.019
			c0.101,0.056,0.171,0.096,0.211,0.121l0.051,0.029l0.036,0.019c0.076,0.042,0.15,0.08,0.226,0.122
			c0.225,0.124,0.452,0.244,0.678,0.363l0.192,0.103l0.023,0.01l0.235,0.121l0.01,0.004l0.12,0.057
			c0.228,0.116,0.472,0.229,0.715,0.344c0.127,0.06,0.243,0.12,0.375,0.179l0.205,0.092l0.116,0.05l0.075,0.032
			c0.376,0.166,0.73,0.314,1.049,0.441l0.03,0.012l0.198,0.078l0.015,0.007c0.441,0.171,0.862,0.324,1.259,0.463l0.069,0.024
			l0.216,0.072v-0.002c0.214,0.072,0.422,0.132,0.633,0.198c0.099,0.031,0.2,0.064,0.299,0.094c0.121,0.036,0.245,0.081,0.366,0.115
			l0.102,0.031l0.029,0.007l0.049,0.014c0.203,0.058,0.403,0.105,0.603,0.159l0.102,0.025c0.227,0.06,0.454,0.124,0.678,0.179
			l0.055,0.012l0.164,0.036c0.106,0.024,0.215,0.044,0.32,0.067l0.099,0.022c0.321,0.07,0.642,0.144,0.968,0.206l0.077,0.012
			l0.026,0.006l0.015,0.004c0.499,0.09,0.997,0.168,1.494,0.239l0.02,0.002l0.081,0.01l-0.027-0.003
			c0.439,0.059,0.867,0.103,1.294,0.145h0.004l0.157,0.021l0.165,0.014c0.405,0.037,0.818,0.056,1.23,0.076l0.119,0.016l0.291,0.009
			c0.248,0.01,0.497,0.011,0.744,0.014c0.05,0.096,0.098,0.191,0.141,0.272l0.007,0.013c0.891,1.735,1.837,3.453,2.836,5.153
			c15.37,30.223,50.034,50.824,86.665,50.824c36.63,0,72.155-28.764,83.818-63.114c0.519-1.322,0.987-2.616,1.402-3.865
			c1.357-1.795,2.359-3.606,2.943-5.466C238.136,172.281,238.19,170.062,237.878,168.291z"/>
	</g>
	<path fill="#5C5C5C" d="M222.952,225.979c-0.799,0.773-1.758,1.159-2.877,1.159c-1.155,0-2.131-0.396-2.92-1.187
		c-0.793-0.791-1.189-1.766-1.189-2.921c0-1.201,0.428-2.198,1.282-2.994c0.803-0.744,1.747-1.115,2.827-1.115
		c1.134,0,2.102,0.4,2.905,1.204c0.803,0.802,1.204,1.77,1.204,2.904C224.185,224.196,223.774,225.179,222.952,225.979z
		 M217.661,220.648c-0.654,0.67-0.982,1.463-0.982,2.381c0,0.952,0.333,1.761,0.999,2.425c0.662,0.667,1.461,0.999,2.397,0.999
		c0.934,0,1.731-0.335,2.391-1.004c0.662-0.673,0.993-1.479,0.993-2.42c0-0.914-0.329-1.708-0.987-2.381
		c-0.664-0.683-1.463-1.026-2.397-1.026C219.131,219.622,218.327,219.965,217.661,220.648z M221.394,225.077
		c-0.392,0.26-0.797,0.388-1.218,0.388c-0.624,0-1.164-0.223-1.619-0.668c-0.457-0.447-0.685-1.033-0.685-1.757
		c0-0.676,0.196-1.253,0.59-1.728c0.392-0.477,0.93-0.714,1.613-0.714c0.436,0,0.812,0.089,1.132,0.269
		c0.521,0.291,0.845,0.8,0.97,1.527l-1.048-0.016c-0.063-0.338-0.198-0.564-0.401-0.68c-0.171-0.108-0.36-0.163-0.563-0.163
		c-0.308,0-0.561,0.128-0.759,0.381c-0.196,0.254-0.295,0.637-0.295,1.149c0,0.508,0.109,0.878,0.325,1.107
		c0.219,0.23,0.479,0.345,0.784,0.345c0.28,0,0.491-0.076,0.634-0.228c0.143-0.152,0.236-0.344,0.276-0.575h1.02
		C222.039,224.364,221.786,224.818,221.394,225.077z"/>
	<path fill="#6A6B6B" d="M232.164,169.682l0.002-0.003c0,0,0.013-1.495-0.927-2.716l-0.021-0.034
		c-0.055-0.073-0.114-0.137-0.173-0.202l-0.059-0.07c-0.101-0.105-0.217-0.203-0.337-0.3c-0.217-0.176-0.462-0.336-0.746-0.472
		c-0.15-0.071-0.31-0.138-0.481-0.195c-0.466-0.158-1.014-0.253-1.655-0.265c-0.468-0.01-0.993,0.035-1.566,0.125
		c-0.228,0.036-0.455,0.07-0.702,0.124l-0.114,0.021c0,0,0.025,0.059,0.063,0.146c0.038,0.093,0.091,0.226,0.162,0.403
		c0.027,0.069,0.055,0.141,0.086,0.221c0.122,0.315,0.272,0.716,0.43,1.172c-0.002,0.004-0.019,0.099-0.07,0.28l-0.027,0.095
		c-0.204,0.7-0.791,2.334-2.275,4.547c-0.253,0.377-0.535,0.772-0.843,1.182c-4.212,5.597-13.794,14.012-35.314,20.729
		c-7.338,1.982-14.22,2.898-20.194,2.898c-8.834,0-15.7-1.969-19.195-5.329c-0.302-0.289-0.586-0.59-0.856-0.895
		c-0.2-0.225-0.392-0.454-0.576-0.688c-0.067-0.086-0.126-0.175-0.19-0.261c-1.591-2.141-2.471-4.582-2.74-7.019
		c-0.325-2.958,0.244-5.898,1.533-8.265c1.046-1.919,2.563-3.458,4.454-4.318c0.927-0.421,1.941-0.684,3.033-0.744
		c0.223-0.014,0.516-0.018,0.883-0.018c0.733,0,1.76,0.018,3.019,0.022c0.141,0.001,0.274,0.001,0.421,0.001
		c4.195,0,10.85-0.198,18.746-1.672c14.366-2.683,32.854-9.604,48.213-27.355l0.038-0.068v-0.002l-0.004-0.026
		c-0.103-1.313-0.571-3.651-2.449-5.281c-0.329-0.286-0.704-0.548-1.121-0.781c-0.238-0.133-0.487-0.26-0.757-0.37
		c-0.272-0.11-0.521-0.224-0.763-0.339c-0.329-0.153-0.643-0.31-0.925-0.468l-0.044-0.05c-0.141-0.168-0.287-0.33-0.428-0.497
		c-5.333-6.239-12.003-9.416-14.695-10.917c-1.271-0.711-2.057-1.007-2.057-1.007c-5.744-2.588-6.661-3.569-7.262-12.463
		c-0.215-3.202-0.39-7.425-0.74-13.136c-0.046-0.743-0.11-1.447-0.181-2.136c-0.019-0.165-0.036-0.325-0.055-0.487
		c-0.076-0.651-0.162-1.286-0.261-1.892l-0.03-0.174l-0.036-0.186c-0.086-0.476-0.179-0.938-0.274-1.386
		c-0.044-0.197-0.087-0.395-0.133-0.588c-0.112-0.478-0.234-0.942-0.365-1.386c-0.067-0.227-0.139-0.446-0.209-0.666
		c-0.08-0.247-0.162-0.491-0.245-0.727c-0.082-0.233-0.166-0.47-0.253-0.693v-0.002v-0.002v0.002
		c-0.106-0.276-0.223-0.535-0.335-0.795c-0.04-0.094-0.078-0.194-0.122-0.285c-0.042-0.087-0.082-0.167-0.122-0.254l-0.042-0.086
		l-0.122-0.248l-0.008-0.017c-0.101-0.199-0.202-0.392-0.302-0.582l-0.034-0.062l-0.099-0.178l-0.122-0.22l-0.025-0.043v-0.001
		l-0.002-0.003c-0.207-0.355-0.419-0.698-0.641-1.016l-0.169-0.233c-0.245-0.309-0.493-0.597-0.74-0.872l-0.103-0.117l-0.124-0.127
		c-0.177-0.19-0.354-0.374-0.533-0.546l-0.24-0.235c-0.234-0.218-0.466-0.428-0.7-0.621v-0.002l-0.011-0.033l-0.011-0.043
		l-0.017-0.058l-0.025-0.082l-0.025-0.083l-0.044-0.133l-0.025-0.079l-0.061-0.186l-0.021-0.068
		c-0.118-0.352-0.278-0.811-0.485-1.349l-0.015-0.04c-0.051-0.13-0.105-0.266-0.162-0.408l-0.021-0.053
		c-0.059-0.146-0.12-0.296-0.185-0.452l-0.006-0.01c-0.15-0.361-0.325-0.751-0.51-1.151c-0.059-0.13-0.127-0.266-0.192-0.4
		c-0.133-0.282-0.27-0.561-0.422-0.853c-0.084-0.166-0.177-0.332-0.268-0.501c-0.145-0.271-0.295-0.54-0.455-0.817
		c-0.105-0.18-0.215-0.359-0.323-0.541c-0.167-0.271-0.335-0.54-0.514-0.81c-0.122-0.184-0.242-0.366-0.369-0.549
		c-0.19-0.274-0.392-0.54-0.595-0.809c-0.131-0.172-0.263-0.344-0.4-0.515c-0.232-0.287-0.479-0.565-0.729-0.843
		c-0.126-0.137-0.245-0.281-0.375-0.418c-0.114-0.119-0.242-0.225-0.358-0.341c-0.283-0.28-0.561-0.562-0.866-0.821l-0.036-0.03
		l-0.167-0.126c-0.392-0.325-0.797-0.64-1.225-0.922l-0.076-0.051c-0.19-0.124-0.384-0.242-0.578-0.354l-0.023-0.013l-0.069-0.038
		c-0.169-0.097-0.342-0.188-0.517-0.277l-0.091-0.049l0.036,0.025c-0.184-0.106-0.512-0.229-0.938-0.36
		c-0.15-0.044-0.312-0.09-0.489-0.137c-0.873-0.231-2.047-0.47-3.425-0.659c-0.084-0.012-0.177-0.022-0.261-0.032
		c-1.145-0.149-2.409-0.263-3.744-0.309c-0.447-0.015-0.902-0.025-1.36-0.023c-0.217,0-0.436,0.016-0.656,0.02
		c-0.087,0.002-0.177,0.006-0.264,0.009c-1.039,0.029-2.089,0.09-3.137,0.23l-0.061,0.01c-1.349,0.182-2.685,0.459-3.942,0.876
		c0.238-0.54,0.989-1.198,1.754-1.764c0.951-0.706,1.922-1.263,1.922-1.263c-0.578,0.115-1.166,0.273-1.754,0.444
		c-0.19,0.056-0.38,0.107-0.569,0.166c-0.122,0.038-0.247,0.08-0.367,0.118l-0.107,0.036c-0.103,0.034-0.204,0.068-0.304,0.105
		c-2.93,1.015-5.691,2.458-7.218,3.316c-0.219,0.122-0.409,0.23-0.573,0.325l-0.099,0.056c-0.156,0.04-0.32,0.085-0.478,0.124
		l0.004-0.005c0.915-2.344,2.521-3.744,3.775-4.536c0.221-0.138,0.432-0.264,0.624-0.365c0.072-0.039,0.131-0.066,0.198-0.1
		c0.183-0.09,0.341-0.165,0.478-0.224c0.304-0.131,0.502-0.197,0.502-0.197c-0.141,0.021-0.272,0.057-0.411,0.082
		c-0.118,0.022-0.234,0.047-0.352,0.07c-0.169,0.035-0.344,0.066-0.514,0.104c-0.103,0.023-0.207,0.039-0.31,0.062
		c-3.282,0.774-6.102,2.271-8.463,3.987c-1.629,1.183-3.046,2.469-4.22,3.707c-0.341,0.116-0.687,0.235-1.039,0.357
		c-3.543,1.229-7.572,2.745-11.777,4.631c-1.552,0.695-3.129,1.441-4.712,2.241c-1.233,0.624-2.471,1.29-3.707,1.982
		c-0.886,0.496-1.77,1.008-2.65,1.541c-6.336,3.829-12.451,8.626-17.343,14.651c-0.177,0.217-0.362,0.423-0.535,0.643
		c-0.424,0.541-0.827,1.103-1.231,1.664c-0.164,0.228-0.341,0.446-0.5,0.677c-0.202,0.289-0.384,0.595-0.58,0.889
		c-0.885,1.334-1.727,2.707-2.484,4.15c-0.562,1.072-1.084,2.178-1.567,3.312l-0.061,0.135c-0.997,2.366-1.815,4.87-2.42,7.518
		c-0.304,1.326-0.554,2.687-0.746,4.085c-0.051,0.37-0.103,0.74-0.147,1.116l-0.025,0.197c-0.167,1.513-0.26,3.072-0.291,4.671
		c-0.006,0.316-0.017,0.627-0.018,0.946c-0.001,0.797,0.021,1.607,0.055,2.425c0.031,0.748,0.08,1.504,0.142,2.271l0.015,0.175
		c0.03,0.375,0.056,0.748,0.095,1.126c0.044,0.432,0.102,0.872,0.156,1.311c0.012,0.102,0.024,0.203,0.036,0.306
		c0.11,0.858,0.232,1.72,0.379,2.599l0.027,0.14c0.148,0.872,0.322,1.76,0.509,2.653c0.078,0.371,0.157,0.742,0.243,1.118
		c0.021,0.092,0.038,0.184,0.059,0.275c0.048,0.209,0.099,0.419,0.148,0.626c0.235,0.986,0.497,1.984,0.779,2.996
		c0.078,0.281,0.154,0.56,0.235,0.844c0.257,0.883,0.527,1.773,0.82,2.676c0,0-0.309-1.166-0.424-2.923
		c-0.027-0.405-0.043-0.839-0.042-1.303c0-1.005,0.076-2.125,0.297-3.296c0.053-0.286,0.119-0.576,0.19-0.869
		c0.032-0.127,0.069-0.254,0.105-0.382c0.148-0.544,0.325-1.091,0.548-1.638c0.114,0.358,0.228,0.711,0.347,1.068l0.037,0.115
		l0.019,0.168c0.025,0.225,0.053,0.469,0.084,0.728c0.065,0.558,0.144,1.185,0.234,1.87c0.092,0.686,0.197,1.422,0.32,2.201
		c0.508,3.269,1.282,7.197,2.412,10.483c0,0-0.63-6.154,0.322-6.978c0,0,3.229,11.139,5.449,15.22
		c0.287,0.528,0.558,0.944,0.803,1.196l-0.183-1.122l-1.025-6.287c0,0-0.017-0.237-0.046-0.654c1.585,2.431,3.354,4.912,5.318,7.443
		c0.544,0.7,1.097,1.402,1.672,2.111c-2.782,3.135-5.186,7.379-6.682,12.283c-0.238,0.785-0.455,1.584-0.644,2.399
		c-0.107,0.464-0.206,0.937-0.298,1.411c-0.029,0.148-0.055,0.299-0.082,0.449c-0.06,0.333-0.116,0.668-0.167,1.005
		c-0.027,0.172-0.051,0.344-0.076,0.518c-0.046,0.337-0.086,0.674-0.124,1.015c-0.018,0.16-0.038,0.318-0.053,0.479
		c-0.047,0.485-0.087,0.974-0.115,1.468l-0.003,0.046c-0.029,0.494-0.044,0.992-0.051,1.492c-0.002,0.161,0,0.322,0,0.483
		c-0.002,0.355,0.002,0.712,0.011,1.07c0.004,0.182,0.011,0.363,0.019,0.545c0.013,0.361,0.034,0.722,0.06,1.085
		c0.012,0.163,0.022,0.325,0.035,0.49c0.044,0.521,0.097,1.045,0.165,1.572l0.01,0.068c0.052,0.403,0.112,0.808,0.179,1.214
		c0.068,0.408,0.144,0.816,0.225,1.225l0.03,0.164l0.019,0.105c0.104,0.496,0.219,0.993,0.343,1.492
		c0.04,0.158,0.087,0.316,0.126,0.473c0.091,0.341,0.183,0.682,0.284,1.025c0.056,0.189,0.118,0.38,0.178,0.569
		c0.098,0.312,0.197,0.624,0.303,0.936c0.07,0.2,0.142,0.4,0.215,0.601c0.108,0.303,0.222,0.607,0.342,0.91
		c0.08,0.203,0.16,0.407,0.244,0.611c0.125,0.303,0.255,0.607,0.39,0.91c0.087,0.201,0.177,0.4,0.268,0.6
		c0.146,0.314,0.299,0.628,0.453,0.942c0.093,0.187,0.183,0.376,0.28,0.563c0.178,0.345,0.367,0.691,0.557,1.036
		c0.086,0.154,0.166,0.308,0.253,0.462c0.569,0.999,1.192,1.994,1.871,2.983c0.1,0.146,0.208,0.293,0.312,0.439
		c0.244,0.347,0.491,0.693,0.749,1.037c0.135,0.18,0.277,0.359,0.415,0.538c0.241,0.31,0.484,0.62,0.735,0.929
		c0.156,0.192,0.318,0.382,0.478,0.573c0.248,0.295,0.501,0.592,0.761,0.885c0.174,0.195,0.348,0.389,0.525,0.583
		c0.266,0.291,0.54,0.581,0.817,0.87c0.184,0.191,0.366,0.381,0.553,0.572c0.293,0.296,0.596,0.591,0.9,0.884
		c0.186,0.18,0.369,0.36,0.561,0.538c0.341,0.32,0.694,0.637,1.051,0.954c0.167,0.148,0.328,0.299,0.499,0.446
		c0.533,0.463,1.081,0.924,1.647,1.38l-0.001-0.002c-0.006-0.006-0.348-0.387-0.833-1.071l-0.016-0.022
		c-0.09-0.127-0.187-0.268-0.285-0.418l-0.03-0.042c-0.104-0.156-0.211-0.325-0.322-0.501l-0.019-0.03
		c-0.117-0.189-0.237-0.389-0.356-0.6c-0.963-1.689-1.989-4.07-2.24-6.836c0.334,0.348,0.671,0.681,1.008,1.022
		c0.422,0.645,0.957,1.444,1.578,2.338c0.208,0.297,0.423,0.606,0.649,0.923c0.902,1.265,1.943,2.666,3.059,4.056
		c1.34,1.67,2.793,3.328,4.253,4.73l-0.001-0.002c-0.008-0.009-1.859-2.893-2.602-4.844c-0.208-0.549-0.334-1.026-0.3-1.341
		c0.133,0.107,0.266,0.214,0.401,0.321c0.133,0.108,0.267,0.214,0.4,0.321c0.274,0.284,0.617,0.639,1.004,1.035l0.194,0.198
		c0.191,0.196,0.389,0.399,0.601,0.614l0.012,0.012c0.244,0.248,0.5,0.506,0.767,0.772c2.397,2.401,5.571,5.457,7.766,7.079
		c0.731,0.54,1.355,0.923,1.802,1.067l-3.463-4.719c7.055,4.416,34.322,7.822,59.434-2.886c3.033-1.292,6.031-2.793,8.961-4.523
		c1.767-1.042,3.508-2.158,5.217-3.372l0.247-0.182c1.197-0.86,2.374-1.77,3.537-2.72l0.025-0.022
		c0.875-0.713,1.735-1.454,2.584-2.218c1.419-1.289,2.816-2.635,4.161-4.075l0.004-0.003l0.006-0.006
		c0.076-0.087,0.156-0.174,0.236-0.26c1.328-1.485,2.553-2.996,3.678-4.519c1.486-2.009,2.793-4.037,3.953-6.052l0.088-0.146
		c0.28-0.497,0.557-0.99,0.822-1.478l0.076-0.143c0.087-0.166,0.162-0.325,0.247-0.489c0.369-0.703,0.732-1.403,1.069-2.098
		c0.078-0.166,0.162-0.335,0.242-0.501c0.173-0.367,0.339-0.733,0.504-1.096c0.126-0.283,0.253-0.565,0.373-0.845
		c0.131-0.304,0.266-0.611,0.396-0.913c0.228-0.55,0.449-1.096,0.658-1.635c0.084-0.215,0.16-0.423,0.24-0.634
		c0.16-0.421,0.312-0.835,0.459-1.245c0.067-0.191,0.135-0.381,0.2-0.572l0.059-0.178c0.181-0.517,0.354-1.029,0.514-1.531
		l0.03-0.106c0.742-0.887,1.299-1.711,1.735-2.489c0.063-0.109,0.129-0.222,0.186-0.33
		C232.113,172.541,232.309,171.014,232.164,169.682z"/>
	<path fill="#6A6B6B" d="M74.248,170.197c-0.034-0.115-0.07-0.231-0.107-0.344l0.022-0.01c-0.516-1.639-0.959-3.331-1.343-5.07
		c-0.027-0.123-0.06-0.242-0.086-0.364c-0.281,0.127-0.56,0.552-0.824,1.116c-0.097,0.211-0.192,0.441-0.285,0.683
		c-0.674,1.763-1.182,4.154-1.182,4.154c-0.032-0.775-0.048-1.579-0.053-2.39c0-0.094,0-0.187,0-0.282
		c-0.002-0.825,0.009-1.66,0.03-2.49c0.002-0.099,0.004-0.199,0.007-0.298c0.027-0.935,0.062-1.865,0.107-2.766
		c0.005-0.118,0.012-0.23,0.017-0.346l0.005-0.059c0.006-0.105,0.01-0.209,0.017-0.314c0.008-0.155,0.015-0.31,0.025-0.463
		c0.042-0.713,0.086-1.404,0.132-2.06c0.043-0.593,0.087-1.154,0.129-1.683l0.014-0.169c0.006-0.084,0.013-0.16,0.019-0.239
		c0.008-0.078,0.013-0.158,0.021-0.237l0.002-0.028c0.011-0.133,0.023-0.269,0.034-0.395l0.002-0.034
		c0.012-0.124,0.021-0.228,0.032-0.344c0.015-0.183,0.032-0.37,0.049-0.538l0.005-0.049c0.013-0.137,0.026-0.277,0.038-0.403
		c0.018-0.182,0.035-0.347,0.049-0.506l0.002-0.005v-0.005c0.008-0.089,0.017-0.169,0.025-0.252l0.002-0.016
		c0.008-0.076,0.015-0.153,0.023-0.222c0.017-0.167,0.032-0.317,0.046-0.433l0.011-0.105l0.006-0.038l0.013-0.122l0.01-0.086
		l0.002-0.011l-0.011,0.011l-0.156,0.185c-0.143,0.159-0.285,0.315-0.414,0.489l-0.139,0.196c-0.149,0.217-0.292,0.441-0.423,0.674
		l-0.068,0.116c-0.16,0.295-0.306,0.601-0.442,0.911l-0.001,0.002l-0.017,0.04v0.003l-0.053,0.136
		c-0.03,0.076-0.059,0.153-0.09,0.229c-0.074,0.193-0.155,0.381-0.224,0.576l-0.002,0.006l-0.003,0.007l-0.005,0.016l-0.023,0.073
		l-0.025,0.073c-0.103,0.305-0.194,0.608-0.278,0.907c-0.237,0.838-0.403,1.63-0.519,2.287c-0.042,0.234-0.077,0.456-0.106,0.651
		c-0.062,0.423-0.102,0.753-0.118,0.914l-0.001,0.014l-0.011,0.108v-0.002v0.002l-0.005-0.125c-0.018-0.244-0.018-0.489-0.03-0.733
		c-0.026-0.514-0.056-1.028-0.064-1.54c-0.008-0.431,0.008-0.855,0.015-1.284c0.001-0.134,0.006-0.269,0.008-0.402
		c0.004-0.198,0.006-0.394,0.013-0.592c0.007-0.185,0.025-0.367,0.035-0.549l0.001-0.012v-0.002l0.011-0.203l0.005-0.055
		c0.014-0.224,0.027-0.447,0.041-0.67c0.007-0.086,0.01-0.171,0.016-0.258l0.013-0.154l0.001-0.028
		c0.007-0.073,0.013-0.147,0.018-0.22c0.009-0.09,0.022-0.18,0.03-0.266c0.032-0.326,0.071-0.649,0.107-0.971l0.006-0.054
		c0.027-0.24,0.048-0.481,0.078-0.719l0.002-0.01l0.004-0.017l0.009-0.069c0.065-0.489,0.143-0.97,0.22-1.453l0.02-0.132
		l0.021-0.134c0.015-0.089,0.026-0.184,0.042-0.273c0.133-0.786,0.281-1.563,0.445-2.326l0.023-0.094
		c0.14-0.649,0.287-1.288,0.445-1.918l0.017-0.072c0.072-0.278,0.148-0.546,0.221-0.82l0.011-0.042
		c0.111-0.409,0.217-0.822,0.331-1.221l0.004-0.004v-0.001l0.001-0.006l0.014-0.05c0.03-0.1,0.103-0.343,0.217-0.699l0.003-0.008
		l0.014-0.047v-0.003c0.044-0.14,0.086-0.278,0.129-0.419c0.069-0.228,0.138-0.453,0.208-0.676l0.062-0.197l0.002-0.009l1.279-3.171
		c0.052-0.133,0.106-0.264,0.158-0.399l0.026-0.064l0.065-0.164c0.139-0.351,0.28-0.705,0.417-1.048
		c0.203-0.508,0.401-0.997,0.585-1.455c0.378-0.931,0.699-1.723,0.895-2.2c0.108-0.264,0.18-0.44,0.202-0.493l0.01-0.025h-0.004
		l-0.006-0.004l-0.018-0.01c-0.068-0.035-0.612-0.318-1.499-0.714c-1.009-0.451-2.472-1.048-4.23-1.613
		c-0.564-0.182-1.155-0.359-1.773-0.526c-0.74-0.201-1.512-0.39-2.314-0.552c-0.203-0.042-0.419-0.068-0.627-0.107
		c-0.671-0.123-1.354-0.224-2.049-0.301l-0.039-0.004c-0.477-0.053-0.954-0.111-1.441-0.141c-0.382-0.023-0.763-0.047-1.15-0.052
		c-0.186-0.002-0.372,0.007-0.558,0.012c-0.183,0.006-0.366,0.008-0.549,0.013c-0.517,0.018-1.032,0.057-1.548,0.11
		c-0.251,0.025-0.5,0.048-0.75,0.084c-1.113,0.165-2.198,0.4-3.258,0.687l-0.193,0.055c-1.906,0.533-3.72,1.256-5.42,2.15
		c-0.577,0.304-1.144,0.625-1.695,0.967c-0.158,0.098-0.312,0.2-0.468,0.301c-0.19,0.124-0.382,0.244-0.568,0.371
		c-1.656,1.131-3.173,2.439-4.537,3.885l-0.05,0.052c-1.172,1.249-2.227,2.604-3.151,4.047c-0.264,0.413-0.518,0.831-0.762,1.258
		c-0.286,0.503-0.559,1.013-0.814,1.534c-0.482,0.984-0.907,1.998-1.272,3.038c-0.128,0.365-0.252,0.733-0.365,1.104
		c-0.021,0.07-0.039,0.143-0.06,0.213c-0.716,2.419-1.112,4.961-1.141,7.568c-0.006,0.51,0,1.023,0.022,1.541l0.009,0.193
		c0.021,0.409,0.049,0.818,0.088,1.229c0.048,0.502,0.107,1.007,0.183,1.512c0.011,0.082,0.029,0.159,0.041,0.239
		c0.062,0.391,0.126,0.78,0.204,1.165l0.046,0.203c0.02,0.089,0.041,0.178,0.06,0.266c0.065,0.304,0.129,0.607,0.205,0.905
		l0.019,0.067l0.006,0.02v0.002c0.041,0.149,0.084,0.299,0.127,0.449c0.073,0.268,0.144,0.54,0.224,0.804
		c0.06,0.194,0.127,0.38,0.188,0.572c0.083,0.245,0.162,0.497,0.25,0.74c0.073,0.2,0.153,0.396,0.229,0.591l0.053,0.138l0.08,0.205
		l0.063,0.156l0.073,0.188c0.085,0.204,0.179,0.403,0.269,0.605c0.094,0.212,0.188,0.427,0.287,0.636
		c0.097,0.206,0.203,0.405,0.306,0.609l0.082,0.163c0.073,0.146,0.147,0.291,0.224,0.436c0.11,0.205,0.23,0.407,0.344,0.612
		c0.106,0.185,0.211,0.373,0.32,0.557c0.063,0.105,0.128,0.205,0.194,0.306c0.065,0.101,0.128,0.203,0.192,0.304
		c0.11,0.175,0.218,0.347,0.332,0.519c0.139,0.207,0.285,0.409,0.429,0.613c0.112,0.158,0.223,0.32,0.338,0.476
		c0.153,0.207,0.313,0.409,0.473,0.615c0.114,0.143,0.225,0.288,0.342,0.431c0.169,0.207,0.343,0.407,0.517,0.609
		c0.115,0.134,0.226,0.265,0.343,0.396c0.184,0.203,0.375,0.403,0.564,0.603c0.113,0.119,0.225,0.239,0.341,0.354
		c0.201,0.205,0.408,0.403,0.615,0.599c0.108,0.107,0.218,0.212,0.33,0.315c0.218,0.202,0.44,0.396,0.665,0.59
		c0.106,0.092,0.211,0.184,0.32,0.274c0.234,0.199,0.473,0.392,0.714,0.578c0.104,0.08,0.204,0.162,0.307,0.24
		c0.251,0.191,0.508,0.379,0.765,0.563c0.097,0.068,0.194,0.137,0.291,0.206c0.27,0.184,0.543,0.365,0.818,0.542
		c0.092,0.059,0.183,0.117,0.274,0.175c0.287,0.18,0.576,0.353,0.87,0.523c0.084,0.046,0.167,0.095,0.252,0.144
		c0.303,0.169,0.611,0.333,0.921,0.494l0.232,0.117c0.32,0.162,0.644,0.319,0.972,0.467l0.207,0.091
		c0.339,0.154,0.68,0.294,1.024,0.433l0.181,0.073c0.356,0.138,0.713,0.268,1.076,0.394l0.155,0.05
		c0.371,0.127,0.745,0.243,1.122,0.353l0.134,0.04c0.385,0.108,0.774,0.208,1.166,0.304l0.106,0.023
		c0.401,0.095,0.804,0.181,1.212,0.257l0.083,0.016c0.199,0.036,0.399,0.063,0.598,0.096c0.217,0.033,0.434,0.072,0.654,0.105
		l0.062,0.009c0.426,0.058,0.857,0.104,1.289,0.142l0.037,0.006c0.002,0,0.006,0,0.008,0.001c0.438,0.037,0.877,0.064,1.318,0.078
		l0.02,0.005c1.357,0.048,2.733,0,4.119-0.156h0.001c0.329-0.036,0.661-0.072,0.992-0.118c0.44-0.068,0.891-0.152,1.343-0.246
		c0.619-0.127,1.242-0.281,1.867-0.456c0.55-0.153,1.098-0.321,1.641-0.506c0.848-0.289,1.682-0.608,2.48-0.951
		c2.395-1.031,4.471-2.266,5.66-3.409c0,0-1.337-3.718-2.55-7.512C74.507,171.027,74.377,170.609,74.248,170.197z"/>
	<polygon fill="#996C48" points="176.038,64.25 176.042,64.251 176.031,64.244 	"/>
	<path fill="#F0F0EF" d="M232.164,169.682l0.002-0.003c0,0,0.013-1.495-0.927-2.716l-0.021-0.034
		c-0.055-0.073-0.114-0.137-0.173-0.202l-0.059-0.07c-0.101-0.105-0.217-0.203-0.337-0.3c-0.217-0.176-0.462-0.336-0.746-0.472
		c-0.15-0.071-0.31-0.138-0.481-0.195c-0.466-0.158-1.014-0.253-1.655-0.265c-0.468-0.01-0.993,0.035-1.566,0.125
		c-0.228,0.036-0.455,0.07-0.702,0.124l-0.114,0.021c0,0,0.025,0.059,0.063,0.146c0.038,0.093,0.091,0.226,0.162,0.403
		c0.027,0.069,0.055,0.141,0.086,0.221c0.122,0.315,0.272,0.716,0.43,1.172c-0.002,0.004-0.019,0.099-0.07,0.28l-0.027,0.095
		c-0.204,0.7-0.791,2.334-2.275,4.547c-0.253,0.377-0.535,0.772-0.843,1.182c-4.212,5.597-13.794,14.012-35.314,20.729
		c-7.338,1.982-14.22,2.898-20.194,2.898c-8.834,0-15.7-1.969-19.195-5.329c-0.302-0.289-0.586-0.59-0.856-0.895
		c-0.2-0.225-0.392-0.454-0.576-0.688c-0.067-0.086-0.126-0.175-0.19-0.261c-1.591-2.141-2.471-4.582-2.74-7.019
		c-0.325-2.958,0.244-5.898,1.533-8.265c1.046-1.919,2.563-3.458,4.454-4.318c0.927-0.421,1.941-0.684,3.033-0.744
		c0.223-0.014,0.516-0.018,0.883-0.018c0.733,0,1.76,0.018,3.019,0.022c0.141,0.001,0.274,0.001,0.421,0.001
		c4.195,0,10.85-0.198,18.746-1.672c14.366-2.683,32.854-9.604,48.213-27.355l0.038-0.068v-0.002l-0.004-0.026
		c-0.103-1.313-0.571-3.651-2.449-5.281c-0.329-0.286-0.704-0.548-1.121-0.781c-0.238-0.133-0.487-0.26-0.757-0.37
		c-0.272-0.11-0.521-0.224-0.763-0.339c-0.329-0.153-0.643-0.31-0.925-0.468l-0.044-0.05c-0.141-0.168-0.287-0.33-0.428-0.497
		c-5.333-6.239-12.003-9.416-14.695-10.917c-1.271-0.711-2.057-1.007-2.057-1.007c-5.744-2.588-6.661-3.569-7.262-12.463
		c-0.215-3.202-0.39-7.425-0.74-13.136c-0.046-0.743-0.11-1.447-0.181-2.136c-0.019-0.165-0.036-0.325-0.055-0.487
		c-0.076-0.651-0.162-1.286-0.261-1.892l-0.03-0.174l-0.036-0.186c-0.086-0.476-0.179-0.938-0.274-1.386
		c-0.044-0.197-0.087-0.395-0.133-0.588c-0.112-0.478-0.234-0.942-0.365-1.386c-0.067-0.227-0.139-0.446-0.209-0.666
		c-0.08-0.247-0.162-0.491-0.245-0.727c-0.082-0.233-0.166-0.47-0.253-0.693v-0.002v-0.002v0.002
		c-0.106-0.276-0.223-0.535-0.335-0.795c-0.04-0.094-0.078-0.194-0.122-0.285c-0.042-0.087-0.082-0.167-0.122-0.254l-0.042-0.086
		l-0.122-0.248l-0.008-0.017c-0.101-0.199-0.202-0.392-0.302-0.582l-0.034-0.062l-0.099-0.178l-0.122-0.22l-0.025-0.043v-0.001
		l-0.002-0.003c-0.207-0.355-0.419-0.698-0.641-1.016l-0.169-0.233c-0.245-0.309-0.493-0.597-0.74-0.872l-0.103-0.117l-0.124-0.127
		c-0.177-0.19-0.354-0.374-0.533-0.546l-0.24-0.235c-0.234-0.218-0.466-0.428-0.7-0.621l-0.002-0.002
		c-0.285-0.235-0.571-0.454-0.854-0.655c-0.318-0.147-0.628-0.274-0.936-0.382c-0.101-0.039-0.2-0.063-0.301-0.093
		c-0.204-0.066-0.407-0.128-0.609-0.177c-0.118-0.029-0.232-0.048-0.348-0.07c-0.179-0.035-0.361-0.069-0.538-0.093
		c-0.12-0.014-0.238-0.024-0.356-0.032c-0.173-0.014-0.344-0.025-0.514-0.027c-0.116-0.002-0.232-0.002-0.35,0.004
		c-0.167,0.004-0.337,0.016-0.502,0.03c-0.114,0.012-0.225,0.023-0.335,0.04c-0.173,0.023-0.341,0.053-0.508,0.087
		c-0.105,0.021-0.207,0.042-0.312,0.067l-0.223,0.063c-0.103,0.03-0.205,0.056-0.31,0.089c-0.089,0.027-0.179,0.053-0.268,0.085
		c-0.206,0.069-0.407,0.149-0.609,0.235l-0.179,0.071c-0.531,0.232-1.052,0.511-1.568,0.827l-0.169,0.109
		c-0.202,0.125-0.4,0.253-0.599,0.387L175.7,79.28c-0.181,0.125-0.36,0.254-0.538,0.385l-0.24,0.186
		c-0.177,0.132-0.352,0.267-0.527,0.408l-0.236,0.19c-0.183,0.147-0.365,0.299-0.546,0.452l-0.202,0.17
		c-0.206,0.173-0.409,0.35-0.615,0.531l-0.124,0.106c-0.23,0.203-0.462,0.41-0.694,0.616l-0.01,0.011l-0.036,0.029h0.002
		c-0.434,0.385-0.868,0.779-1.307,1.172c-0.367,0.331-0.74,0.662-1.117,0.991l-0.183,0.162c-0.381,0.329-0.767,0.655-1.153,0.976
		l-0.194,0.16c-0.39,0.315-0.782,0.624-1.183,0.921l-0.207,0.153c-0.401,0.296-0.81,0.576-1.225,0.848l-0.207,0.13
		c-0.42,0.268-0.852,0.523-1.292,0.755l-0.183,0.095c-0.455,0.234-0.917,0.454-1.393,0.644l-0.126,0.047
		c-0.5,0.197-1.006,0.37-1.532,0.507c-0.879,0.233-1.771,0.383-2.669,0.5c-1.465,0.188-2.949,0.252-4.454,0.216
		c-0.502-0.012-1.008-0.038-1.514-0.068c-0.181-0.011-0.358-0.016-0.538-0.029c-1.32-0.089-2.652-0.228-3.995-0.38
		c-0.561-0.063-1.126-0.128-1.691-0.192c-0.911-0.106-1.83-0.203-2.749-0.296c-0.181-0.017-0.36-0.04-0.54-0.058l0.008-0.001
		c-0.131-0.011-0.259-0.023-0.388-0.033c-0.204-0.019-0.407-0.036-0.609-0.056c-0.196-0.014-0.388-0.028-0.584-0.042l-0.101-0.009
		l-0.068-0.005c-0.177-0.013-0.354-0.027-0.535-0.038c-0.413-0.027-0.829-0.049-1.246-0.065c-0.124-0.007-0.247-0.008-0.369-0.01
		c-0.308-0.011-0.616-0.02-0.925-0.022c-0.156-0.002-0.312,0.001-0.468,0.002h-0.034c-0.268,0-0.537,0.002-0.803,0.009
		c-0.177,0.004-0.356,0.011-0.531,0.017c-0.082,0.003-0.162,0.008-0.244,0.011c-0.183,0.009-0.365,0.017-0.55,0.029
		c-0.175,0.011-0.348,0.022-0.525,0.036c-0.28,0.023-0.556,0.051-0.833,0.081c-0.084,0.008-0.166,0.019-0.247,0.028
		c-0.078,0.008-0.156,0.014-0.232,0.025c-0.344,0.043-0.691,0.093-1.035,0.151c-0.091,0.014-0.185,0.024-0.278,0.043
		c-0.438,0.073-0.875,0.164-1.313,0.264c-0.116,0.027-0.228,0.058-0.342,0.084c-0.283,0.07-0.567,0.145-0.85,0.225l-0.126,0.034
		c-0.156,0.044-0.31,0.093-0.466,0.141c-0.289,0.091-0.575,0.184-0.862,0.285c-0.167,0.059-0.333,0.117-0.497,0.182
		c-0.285,0.106-0.571,0.221-0.854,0.341c-0.162,0.067-0.321,0.134-0.485,0.207c-0.306,0.136-0.611,0.283-0.915,0.438
		c-0.14,0.068-0.277,0.13-0.415,0.205c-0.444,0.228-0.886,0.476-1.329,0.742c-3.406,2.568-6.2,5.843-8.286,9.517
		c-0.696,1.223-1.315,2.492-1.849,3.794c-0.567,1.378-1.031,2.794-1.409,4.232c-0.109,0.42-0.214,0.838-0.307,1.262
		c-0.156,0.713-0.296,1.431-0.405,2.153c-0.011,0.077-0.019,0.155-0.029,0.233c-0.118,0.812-0.204,1.629-0.259,2.448
		c-0.057,0.855-0.077,1.711-0.065,2.567c0.006,0.461,0.016,0.924,0.043,1.384c0.074,1.239,0.235,2.471,0.462,3.693
		c0.02,0.11,0.042,0.223,0.066,0.332c0.061,0.313,0.11,0.624,0.183,0.934c0.2,0.865,0.433,1.725,0.715,2.571
		c0.105,0.314,0.227,0.605,0.343,0.906c0.111,0.286,0.212,0.584,0.328,0.863v-0.002c0.888,2.143,2.02,4.033,3.298,5.718
		c4.854,6.41,11.942,9.721,16.979,11.346c1.952,0.587,3.976,1.076,6.065,1.466c0,0-0.087,0.072-0.223,0.19
		c-0.342,0.133-0.744,0.295-1.191,0.482c-0.668,0.283-1.444,0.628-2.293,1.036c-0.957,0.46-2.005,1.001-3.105,1.625
		c-2.93,1.664-6.214,3.922-9.011,6.824c-0.349,0.362-0.692,0.735-1.025,1.118c-0.567,0.653-1.1,1.341-1.604,2.054
		c-0.059,0.081-0.12,0.159-0.176,0.241c-0.077,0.11-0.149,0.223-0.224,0.334c-0.191,0.285-0.375,0.576-0.554,0.871
		c-0.072,0.118-0.145,0.236-0.215,0.356c-0.234,0.403-0.46,0.811-0.67,1.232c-0.205,0.413-0.399,0.837-0.58,1.265
		c-1.442,3.445-2.011,7.424-1.117,11.977l0.003-0.049l0.002-0.035c0.003-0.042,0.008-0.102,0.014-0.175l0.002-0.039
		c0.008-0.071,0.015-0.156,0.025-0.249l0.007-0.058c0.012-0.108,0.028-0.232,0.045-0.365l0.013-0.089
		c0.019-0.145,0.042-0.3,0.069-0.468l0.001-0.003c0.027-0.166,0.061-0.345,0.097-0.531l0.021-0.114
		c0.039-0.188,0.081-0.386,0.128-0.593l0.024-0.099c0.047-0.193,0.098-0.394,0.153-0.599l0.026-0.096
		c0.061-0.223,0.13-0.454,0.204-0.688l0.048-0.146c0.078-0.24,0.16-0.483,0.253-0.732v-0.002c0.003-0.009,0.008-0.018,0.012-0.027
		c0.138-0.372,0.298-0.753,0.471-1.136c0.068-0.146,0.131-0.289,0.202-0.437l0.058-0.122l0.001-0.003
		c0.15-0.303,0.314-0.606,0.491-0.909c0.143-0.247,0.298-0.495,0.46-0.74c0.05-0.078,0.106-0.154,0.158-0.232
		c0.13-0.189,0.266-0.378,0.408-0.563c0.059-0.076,0.115-0.152,0.174-0.226c0.194-0.245,0.396-0.487,0.612-0.723l0.019-0.021v0.001
		l0.001-0.001c0,0-3.006,9.982-0.255,17.258c0-0.002-0.004-0.023-0.01-0.063c-0.002-0.013-0.003-0.03-0.007-0.048
		c-0.006-0.041-0.011-0.088-0.019-0.152c-0.002-0.012-0.003-0.027-0.006-0.04c-0.01-0.078-0.019-0.167-0.03-0.273
		c-0.002-0.013-0.003-0.028-0.004-0.042c-0.011-0.112-0.022-0.237-0.032-0.375c-0.002-0.014-0.002-0.028-0.004-0.041
		c-0.01-0.144-0.019-0.299-0.029-0.466c-0.001-0.014-0.001-0.028-0.002-0.042c-0.008-0.171-0.013-0.351-0.016-0.542
		c0-0.015,0-0.03,0-0.046c-0.005-0.191-0.003-0.391,0-0.599c0-0.019,0-0.037,0.001-0.056c0.004-0.223,0.013-0.453,0.027-0.691
		l0.003-0.056l0.006-0.121l0.002-0.005c0.018-0.267,0.046-0.543,0.082-0.823c0.002-0.019,0.005-0.037,0.007-0.056
		c0.036-0.274,0.08-0.552,0.131-0.831c0.017-0.087,0.031-0.171,0.049-0.257l0.035-0.18l0.001-0.003
		c0.051-0.231,0.111-0.463,0.177-0.695l0.01-0.039l0.002-0.002c0.093-0.322,0.208-0.641,0.335-0.958
		c0.032-0.085,0.068-0.167,0.103-0.25c0.136-0.314,0.283-0.624,0.457-0.921l0.006-0.013l0,0h0.001l0,0c0,0,0.049,2.358,0.459,5.122
		c0.064,0.436,0.14,0.881,0.224,1.33c0.057,0.299,0.112,0.597,0.178,0.896c-0.183-3.003,0.011-5.868,0.48-8.576
		c-0.469,2.709-0.663,5.574-0.48,8.578l0.001,0.001c0.118,1.917,0.388,3.887,0.841,5.908c0.755,3.367,2.014,6.873,3.913,10.491
		c0,0-1.851-4.203-0.51-8.802c0.221,0.377,0.453,0.752,0.691,1.131c0.318,1.277,0.807,3.085,1.438,5.064
		c0.784,3.328,3.659,13.251,11.421,19.516c0,0-3.019-3.048-3.16-7.489c0.342,0.543,0.675,1.029,0.989,1.446
		c1.45,2.057,4.298,5.867,7.203,8.391c0,0-2.569-3.75-2.194-4.675c0,0,7.795,7.553,10.044,8.105l-3.406-4.329l-0.08-0.13
		c10.691,5.894,24.477,6.86,40.544,0.156c2.761-1.152,5.59-2.533,8.482-4.153c1.767-1.042,3.508-2.158,5.217-3.372l0.247-0.182
		c1.197-0.86,2.374-1.77,3.537-2.72l0.025-0.022c0.875-0.713,1.735-1.454,2.584-2.218c1.419-1.289,2.816-2.635,4.161-4.075
		l0.004-0.003l0.006-0.006c0.076-0.087,0.156-0.174,0.236-0.26c1.328-1.485,2.553-2.996,3.678-4.519
		c1.486-2.009,2.793-4.037,3.953-6.052l0.088-0.146c0.28-0.497,0.557-0.99,0.822-1.478l0.076-0.143
		c0.087-0.166,0.162-0.325,0.247-0.489c0.369-0.703,0.732-1.403,1.069-2.098c0.078-0.166,0.162-0.335,0.242-0.501
		c0.173-0.367,0.339-0.733,0.504-1.096c0.126-0.283,0.253-0.565,0.373-0.845c0.131-0.304,0.266-0.611,0.396-0.913
		c0.228-0.55,0.449-1.096,0.658-1.635c0.084-0.215,0.16-0.423,0.24-0.634c0.16-0.421,0.312-0.835,0.459-1.245
		c0.067-0.191,0.135-0.381,0.2-0.572l0.059-0.178c0.181-0.517,0.354-1.029,0.514-1.531l0.03-0.106
		c0.742-0.887,1.299-1.711,1.735-2.489c0.063-0.109,0.129-0.222,0.186-0.33C232.113,172.541,232.309,171.014,232.164,169.682z"/>
	<path fill="#A7A6A6" d="M72.733,164.407c-0.281,0.127-0.56,0.552-0.824,1.116c-0.097,0.211-0.192,0.441-0.285,0.683
		c-0.674,1.763-1.182,4.154-1.182,4.154c-0.032-0.775-0.048-1.579-0.053-2.39c0-0.094,0-0.187,0-0.282
		c-0.002-0.825,0.009-1.66,0.03-2.49c0.002-0.099,0.004-0.199,0.007-0.298c0.027-0.935,0.062-1.865,0.107-2.766
		c0.005-0.118,0.012-0.23,0.017-0.346l0.005-0.059c0.006-0.105,0.01-0.209,0.017-0.314c0.008-0.155,0.015-0.31,0.025-0.463
		c0.042-0.713,0.086-1.404,0.132-2.06c0.043-0.593,0.087-1.154,0.129-1.683l0.014-0.169c0.006-0.084,0.013-0.16,0.019-0.239
		c0.008-0.078,0.013-0.158,0.021-0.237l0.002-0.028c0.011-0.133,0.023-0.269,0.034-0.395l0.002-0.034
		c0.012-0.124,0.021-0.228,0.032-0.344c0.015-0.183,0.032-0.37,0.049-0.538l0.005-0.049c0.013-0.137,0.026-0.277,0.038-0.403
		c0.018-0.182,0.035-0.347,0.049-0.506l0.002-0.005v-0.005c0.008-0.089,0.017-0.169,0.025-0.252l0.002-0.016
		c0.008-0.076,0.015-0.153,0.023-0.222c0.017-0.167,0.032-0.317,0.046-0.433l0.011-0.105l0.006-0.038l0.013-0.122l0.01-0.086
		l0.002-0.011l-0.011,0.011l-0.156,0.185c-0.143,0.159-0.285,0.315-0.414,0.489l-0.139,0.196c-0.149,0.217-0.292,0.441-0.423,0.674
		l-0.068,0.116c-0.16,0.295-0.306,0.601-0.442,0.911l-0.001,0.002l-0.017,0.04v0.003l-0.053,0.136
		c-0.03,0.076-0.059,0.153-0.09,0.229c-0.074,0.193-0.155,0.381-0.224,0.576l-0.002,0.006l-0.003,0.007l-0.005,0.016l-0.023,0.073
		l-0.025,0.073c-0.103,0.305-0.194,0.608-0.278,0.907c-0.237,0.838-0.403,1.63-0.519,2.287c-0.042,0.234-0.077,0.456-0.106,0.651
		c-0.062,0.423-0.102,0.753-0.118,0.914l-0.001,0.014l-0.011,0.108v-0.002v0.002l-0.005-0.125c-0.018-0.244-0.018-0.489-0.03-0.733
		c-0.026-0.514-0.056-1.028-0.064-1.54c-0.008-0.431,0.008-0.855,0.015-1.284c0.001-0.134,0.006-0.269,0.008-0.402
		c0.004-0.198,0.006-0.394,0.013-0.592c0.007-0.185,0.025-0.367,0.035-0.549l0.001-0.012v-0.002l0.011-0.203l0.005-0.055
		c0.014-0.224,0.027-0.447,0.041-0.67c0.007-0.086,0.01-0.171,0.016-0.258l0.013-0.154l0.001-0.028
		c0.007-0.073,0.013-0.147,0.018-0.22c0.009-0.09,0.022-0.18,0.03-0.266c0.032-0.326,0.071-0.649,0.107-0.971l0.006-0.054
		c0.027-0.24,0.048-0.481,0.078-0.719l0.002-0.01l0.004-0.017l0.009-0.069c0.065-0.489,0.143-0.97,0.22-1.453l0.02-0.132
		l0.021-0.134c0.015-0.089,0.026-0.184,0.042-0.273c0.133-0.786,0.281-1.563,0.445-2.326l0.023-0.094
		c0.14-0.649,0.287-1.288,0.445-1.918l0.017-0.072c0.072-0.278,0.148-0.546,0.221-0.82l0.011-0.042
		c0.111-0.409,0.217-0.822,0.331-1.221l0.004-0.004v-0.001l0.001-0.006l0.014-0.05c0.03-0.1,0.103-0.343,0.217-0.699l0.003-0.008
		l0.014-0.047v-0.003c0.044-0.14,0.086-0.278,0.129-0.419c0.069-0.228,0.138-0.453,0.208-0.676l0.062-0.197
		c-0.145-0.055-0.295-0.104-0.443-0.156l-0.083-0.03l-0.159-0.056c-0.958-0.321-1.951-0.549-2.97-0.682l-0.16-0.019
		c-0.653-0.08-1.313-0.12-1.981-0.114h-0.001c-0.387,0.004-0.775,0.017-1.165,0.049c-0.324,0.027-0.649,0.063-0.974,0.109
		c-0.488,0.072-0.967,0.173-1.437,0.286c-0.148,0.036-0.292,0.081-0.438,0.119c-0.231,0.066-0.458,0.139-0.686,0.21
		c-0.09,0.031-0.184,0.055-0.272,0.087c-0.161,0.054-0.318,0.109-0.475,0.171c-0.309,0.117-0.611,0.244-0.907,0.38
		c-0.136,0.063-0.277,0.118-0.41,0.185c-0.401,0.199-0.793,0.411-1.172,0.639c-0.152,0.091-0.291,0.192-0.438,0.286
		c-0.174,0.113-0.342,0.231-0.512,0.347L56.037,144c-0.184,0.135-0.362,0.278-0.541,0.418c-0.166,0.132-0.333,0.27-0.491,0.41
		c-0.194,0.167-0.383,0.336-0.568,0.51c-0.113,0.109-0.221,0.224-0.333,0.335c-0.297,0.302-0.574,0.62-0.846,0.943
		c-0.139,0.167-0.274,0.338-0.407,0.509c-0.236,0.3-0.463,0.604-0.674,0.921l-0.107,0.159c-0.112,0.171-0.21,0.349-0.314,0.525
		l-0.014,0.025l-0.015,0.024c-0.069,0.119-0.144,0.234-0.211,0.355l-0.026,0.048l-0.027,0.048l-0.002,0.004l-0.001,0.003
		c-0.41,0.755-0.752,1.548-1.034,2.363c-0.042,0.118-0.076,0.236-0.114,0.355c-0.128,0.399-0.24,0.803-0.337,1.214
		c-0.038,0.163-0.084,0.321-0.116,0.485v0.002l-0.002,0.002v0.002c-0.084,0.417-0.15,0.835-0.2,1.265l-0.015,0.16l-0.015,0.2
		l-0.001,0.019c-0.03,0.31-0.06,0.62-0.069,0.931c-0.006,0.153-0.003,0.309-0.002,0.465l-0.001,0.043
		c0.001,0.165,0.006,0.332,0.007,0.498c0.002,0.126-0.002,0.252,0.006,0.38c0.025,0.487,0.069,0.975,0.143,1.469
		c0.056,0.38,0.137,0.752,0.22,1.123l0.004,0.021l0.035,0.173c0.048,0.206,0.108,0.406,0.165,0.608
		c0.204,0.735,0.45,1.449,0.752,2.13c0.227,0.52,0.482,1.024,0.763,1.511c0.515,0.892,1.122,1.719,1.789,2.486
		c1.41,1.613,3.128,2.933,5.057,3.862c1.095,0.526,2.256,0.921,3.461,1.183c1.159,0.254,2.353,0.396,3.577,0.377
		c0.276-0.005,0.553-0.017,0.831-0.033c0.414-0.024,0.829-0.058,1.246-0.119c0.385-0.057,0.756-0.15,1.131-0.234
		c0.213-0.048,0.438-0.078,0.649-0.134c0.537-0.145,1.06-0.322,1.569-0.518l0.115-0.04c0.21-0.085,0.406-0.192,0.612-0.283
		c0.636-0.284,1.249-0.609,1.836-0.972l0.128-0.077c0.165-0.097,0.335-0.19,0.492-0.297l0.022-0.01
		c-0.516-1.639-0.959-3.331-1.343-5.07C72.792,164.649,72.759,164.53,72.733,164.407z"/>
	<polygon fill="none" points="35.053,179.466 35.037,179.448 35.038,179.45 35.044,179.456 35.063,179.478 	"/>
	<path fill="#929192" d="M146.469,100.139c-0.742-0.291-1.532-0.467-2.321-0.561c-0.521-0.063-1.041-0.088-1.551-0.088
		c-0.19,0-0.379,0.007-0.569,0.014c-2.607,0.096-4.781,0.809-4.781,0.809c-0.462,0.167-0.906,0.349-1.334,0.538
		c-3.366,1.497-5.578,3.623-7.019,5.938c-1.168,1.874-1.828,3.871-2.175,5.761c-0.032,0.167-0.057,0.333-0.082,0.497
		c-0.076,0.488-0.135,0.967-0.175,1.434c-0.135,1.57-0.084,2.996,0.021,4.118c0.145,1.533,0.388,2.501,0.388,2.501
		c0.439-1.408,0.926-2.711,1.442-3.938c1.279-3.043,2.759-5.552,4.319-7.612c3.035-4.013,6.347-6.344,8.973-7.679
		C144.438,100.428,146.469,100.139,146.469,100.139z"/>
	<path fill="#929192" d="M187.663,89.955l-0.135-0.139c-0.457-0.449-0.986-0.85-1.594-1.166c-1.444-0.748-3.337-0.996-5.814-0.159
		c0,0-2.934,1.087-4.452,3.282c0,0,4.983-2.9,11.044,0.366c0.554,0.298,1.113,0.652,1.682,1.059
		c0.578,0.416,1.163,0.886,1.752,1.428c0,0-0.523-2.399-2.163-4.319C187.882,90.187,187.773,90.068,187.663,89.955z"/>
	<path fill="#C8C6C6" d="M138.738,124.99c0.179-0.178,0.358-0.357,0.559-0.536c0.082-0.074,0.175-0.147,0.261-0.22
		c0.185-0.159,0.363-0.317,0.563-0.473c0.11-0.087,0.236-0.17,0.354-0.256c0.188-0.142,0.375-0.282,0.578-0.419
		c0.135-0.092,0.287-0.179,0.428-0.267c0.204-0.127,0.4-0.256,0.613-0.378c0.162-0.091,0.339-0.176,0.506-0.263
		c0.211-0.112,0.42-0.227,0.643-0.333c0.188-0.088,0.392-0.168,0.588-0.251c0.225-0.096,0.44-0.194,0.673-0.282
		c0.215-0.082,0.445-0.15,0.67-0.226c0.213-0.071,0.417-0.15,0.639-0.215l0.004-0.002l0.131-0.038
		c0.314-0.08,0.622-0.148,0.926-0.206c0.095-0.019,0.19-0.032,0.285-0.049c0.207-0.036,0.415-0.07,0.616-0.097
		c0.108-0.014,0.215-0.026,0.323-0.038c0.187-0.021,0.373-0.038,0.556-0.052c0.108-0.008,0.217-0.014,0.325-0.02
		c0.179-0.008,0.354-0.014,0.527-0.016l0.203-0.007l0.078,0.004c0.39,0.002,0.769,0.02,1.138,0.053l0.196,0.017
		c0.365,0.037,0.717,0.086,1.056,0.147l0.164,0.03c0.346,0.068,0.679,0.143,0.999,0.228l0.086,0.026
		c0.327,0.09,0.637,0.188,0.934,0.296l0.023,0.008h0.002l0.008,0.003c0.352,0.128,0.683,0.266,0.989,0.408l0.013,0.007
		c0.31,0.144,0.597,0.294,0.856,0.442c-0.474-1.773-1.943-5.557-5.993-6.478l-0.013-0.003c-0.576-0.129-1.204-0.203-1.889-0.203
		c-0.166,0-0.335,0.005-0.506,0.013h-0.006c-0.597,0.03-1.235,0.113-1.916,0.257c-7.662,1.615-8.057,8.073-7.972,10.228
		c0.188-0.223,0.394-0.45,0.616-0.679L138.738,124.99z"/>
	<path fill="#FFFFFF" d="M225.695,166.465c-0.031-0.08-0.059-0.152-0.086-0.221c-0.07-0.177-0.124-0.31-0.162-0.403
		c-0.666-1.479-1.417-2.606-2.055-3.396c-0.824-1.022-1.457-1.496-1.457-1.496c0.067-0.404,0.108-0.795,0.143-1.181
		c0.044-0.502,0.067-0.992,0.063-1.462c-0.027-3.559-1.303-6.17-2.245-7.616c-0.152-0.232-0.291-0.43-0.419-0.6
		c-0.493,0.453-0.991,0.898-1.494,1.338c-9.519,8.328-20.656,14.299-33.08,17.815c-8.563,2.423-17.732,3.689-27.424,3.715
		l0.171,0.028c0,0-5.656,1.503-6.53,7.218l0.103,0.044l-0.013,3.761c0.79,4.992,3.472,7.846,6.288,9.172
		c2.839,0.697,6.21,1.079,9.903,1.079c6.427,0,13.664-1.11,20.932-3.21l0.036-0.011l0.038-0.01
		c9.697-2.548,22.962-9.543,32.068-17.577c2.074-1.83,3.933-3.714,5.483-5.612l0.059-0.072l0.107-0.131
		C225.967,167.181,225.817,166.779,225.695,166.465z"/>
	<path fill="#F6D8B3" d="M145.814,120.87c-0.223,0.065-0.426,0.144-0.639,0.215c0.213-0.071,0.422-0.146,0.643-0.212l0.131-0.043
		l-0.131,0.038L145.814,120.87z"/>
	<path fill="#DEDFDE" d="M147.463,141.718c0.318-0.221,0.637-0.442,0.965-0.661c0.139-0.093,0.28-0.187,0.42-0.281
		c0.325-0.217,0.653-0.43,0.986-0.645c0.156-0.101,0.318-0.2,0.476-0.302c0.325-0.205,0.656-0.412,0.993-0.617
		c0.175-0.108,0.358-0.217,0.535-0.325c0.329-0.196,0.66-0.393,0.999-0.589c0.2-0.118,0.401-0.233,0.603-0.348
		c0.327-0.185,0.658-0.373,0.997-0.56c0.223-0.125,0.451-0.247,0.679-0.371c0.327-0.177,0.653-0.354,0.989-0.53
		c0.247-0.134,0.504-0.265,0.759-0.396c0.324-0.167,0.643-0.333,0.976-0.498c0.28-0.139,0.563-0.278,0.847-0.418
		c0.32-0.156,0.639-0.315,0.965-0.465c0.308-0.15,0.626-0.296,0.94-0.442c0.312-0.146,0.622-0.289,0.94-0.434
		c0.346-0.157,0.698-0.312,1.056-0.469c0.299-0.129,0.596-0.264,0.898-0.393c0.384-0.166,0.778-0.328,1.168-0.492
		c0.196-0.081,0.386-0.166,0.582-0.245c1.086-4.174,4.551-14.624,12.454-16.704c0.849-0.232,1.621-0.374,2.361-0.474
		c0.183-0.025,0.377-0.063,0.556-0.08c-0.164-0.561-0.31-1.149-0.424-1.765c-0.78-4.219,0.084-7.916,1.933-8.26
		c1.429-0.297,2.842,1.669,3.128,2.382c0.708,1.224,1.298,2.827,1.636,4.644c0.308,1.661,0.344,3.225,0.186,4.554
		c0.183,0.147,0.341,0.315,0.506,0.476c2.125,2.056,2.831,5.184,3.035,7.438c0.708-0.16,1.433-0.315,2.159-0.47
		c0.185-0.04,0.367-0.081,0.556-0.121l0.114-0.026c0.107-0.023,0.209-0.043,0.316-0.065c0.898-0.188,1.809-0.373,2.732-0.556
		l0.044-0.007c2.091-0.41,4.249-0.805,6.473-1.179c-1.271-0.711-2.057-1.007-2.057-1.007c-5.744-2.588-6.661-3.569-7.262-12.463
		c-0.215-3.202-0.39-7.425-0.74-13.136c-0.046-0.743-0.11-1.447-0.181-2.136c-0.019-0.165-0.036-0.325-0.055-0.487
		c-0.076-0.651-0.162-1.286-0.261-1.892l-0.03-0.174l-0.036-0.186c-0.086-0.476-0.179-0.938-0.274-1.386
		c-0.044-0.197-0.087-0.395-0.133-0.588c-0.112-0.478-0.234-0.942-0.365-1.386c-0.067-0.227-0.139-0.446-0.209-0.666
		c-0.08-0.247-0.162-0.491-0.245-0.727c-0.082-0.233-0.166-0.47-0.253-0.693v-0.002v-0.002c-0.902-1.037-1.931-1.936-3.097-2.664
		l-0.226-0.128l-0.046-0.027l-0.171-0.098l-0.057-0.032c-0.169-0.098-0.342-0.194-0.516-0.28c-0.185-0.093-0.367-0.183-0.556-0.264
		c-1.697-0.764-3.531-1.149-5.449-1.193c-1.06-0.025-2.144,0.055-3.244,0.236c-0.512,0.083-1.024,0.192-1.539,0.319
		c-1.343,0.328-2.7,0.793-4.062,1.399c-0.434,0.385-0.868,0.779-1.307,1.172c-0.367,0.331-0.74,0.662-1.117,0.991l-0.183,0.162
		c-0.381,0.329-0.767,0.655-1.153,0.976l-0.194,0.16c-0.39,0.315-0.782,0.624-1.183,0.921l-0.207,0.153
		c-0.401,0.296-0.81,0.576-1.225,0.848l-0.207,0.13c-0.42,0.268-0.852,0.523-1.292,0.755l-0.183,0.095
		c-0.455,0.234-0.917,0.454-1.393,0.644l-0.126,0.047c-0.5,0.197-1.006,0.37-1.532,0.507c-0.879,0.233-1.771,0.383-2.669,0.5
		c-1.465,0.188-2.949,0.252-4.454,0.216c-0.502-0.012-1.008-0.038-1.514-0.068c-0.181-0.011-0.358-0.016-0.538-0.029
		c-1.32-0.089-2.652-0.228-3.995-0.38c-0.561-0.063-1.126-0.128-1.691-0.192c-0.911-0.106-1.83-0.203-2.749-0.296
		c-0.181-0.017-0.36-0.04-0.54-0.058c-0.744,0.134-1.488,0.302-2.232,0.49l-0.164,0.041c-2.152,0.56-4.29,1.355-6.375,2.379
		c-0.114,0.055-0.23,0.107-0.344,0.165c-0.325,0.165-0.647,0.339-0.967,0.514c-0.432,0.235-0.862,0.479-1.288,0.733
		c-2.979,1.785-5.806,4.059-8.353,6.82c-1.033,1.12-1.982,2.286-2.858,3.485c-1.347,1.842-2.5,3.766-3.472,5.741
		c-0.054,0.11-0.107,0.22-0.16,0.33c-0.516,1.072-0.976,2.158-1.381,3.254c-0.145,0.391-0.291,0.783-0.422,1.175l-0.028,0.079
		c-0.42,1.283-0.765,2.575-1.035,3.871c-0.016,0.078-0.027,0.155-0.041,0.232c-0.037,0.187-0.063,0.375-0.098,0.562
		c-0.108,0.6-0.205,1.201-0.285,1.8c-0.08,0.622-0.152,1.243-0.198,1.865c-0.01,0.132-0.021,0.265-0.029,0.399
		c-0.024,0.378-0.044,0.754-0.054,1.131c-0.037,1.384,0.016,2.754,0.155,4.104c0.035,0.339,0.063,0.681,0.108,1.017
		c0.888,2.143,2.02,4.033,3.298,5.718c4.854,6.41,11.942,9.721,16.979,11.346c1.952,0.587,3.976,1.076,6.065,1.466l0.061,0.082
		l0.004,0.001l0.008-0.005l0.118-0.116c0.232-0.227,0.462-0.454,0.702-0.681c0.086-0.083,0.175-0.163,0.259-0.244
		c0.247-0.231,0.5-0.465,0.757-0.698c0.087-0.077,0.175-0.157,0.263-0.235c0.263-0.233,0.529-0.472,0.803-0.704
		c0.089-0.079,0.179-0.156,0.272-0.234c0.276-0.236,0.557-0.472,0.847-0.709c0.095-0.077,0.19-0.155,0.285-0.232
		c0.293-0.235,0.588-0.469,0.887-0.705c0.103-0.081,0.209-0.161,0.31-0.242c0.302-0.23,0.607-0.463,0.919-0.695
		c0.114-0.083,0.226-0.166,0.341-0.248c0.308-0.23,0.622-0.455,0.944-0.681C147.209,141.897,147.334,141.807,147.463,141.718z
		 M180.119,88.491c2.477-0.837,4.37-0.589,5.814,0.159c0.609,0.316,1.138,0.717,1.594,1.166l0.135,0.139
		c0.11,0.113,0.219,0.232,0.32,0.352c1.64,1.92,2.163,4.319,2.163,4.319c-0.59-0.542-1.174-1.012-1.752-1.428
		c-0.569-0.407-1.128-0.761-1.682-1.059c-6.062-3.267-11.044-0.366-11.044-0.366C177.186,89.578,180.119,88.491,180.119,88.491z
		 M132.633,109.549c-1.56,2.06-3.04,4.569-4.319,7.612c-0.516,1.227-1.003,2.53-1.442,3.938c0,0-0.244-0.968-0.388-2.501
		c-0.105-1.122-0.156-2.548-0.021-4.118c0.04-0.467,0.099-0.946,0.175-1.434c0.025-0.165,0.049-0.33,0.082-0.497
		c0.346-1.89,1.006-3.887,2.175-5.761c1.44-2.314,3.653-4.441,7.019-5.938c0.428-0.189,0.871-0.371,1.334-0.538
		c0,0,2.175-0.713,4.781-0.809c0.19-0.008,0.379-0.014,0.569-0.014c0.51,0,1.029,0.026,1.551,0.088
		c0.79,0.094,1.579,0.27,2.321,0.561c0,0-2.03,0.289-4.863,1.731C138.98,103.205,135.668,105.536,132.633,109.549z M136.965,128.852
		c-0.213,0.089-0.379,0.11-0.472,0.026c-0.337-0.152,0.137-1.476,1.465-3.05c-0.086-2.156,0.31-8.613,7.972-10.228
		c0.681-0.144,1.318-0.226,1.916-0.257h0.006c0.171-0.009,0.341-0.013,0.506-0.013c0.685,0,1.313,0.073,1.889,0.203l0.013,0.003
		c4.051,0.921,5.519,4.705,5.993,6.478c1.32,0.759,1.981,1.522,1.769,1.686c-0.065,0.163-0.276,0.22-0.594,0.216
		c-0.323,0.209-1.027,0.32-2.002,0.423c-1.946,0.207-4.983,0.386-8.312,1.267c-0.234,0.059-0.46,0.12-0.689,0.179
		C141.465,127.098,137.776,129.198,136.965,128.852z"/>
	<polygon fill="#F6D8B3" points="154.387,121.153 154.385,121.153 154.395,121.156 	"/>
	<path fill="#F6D8B3" d="M149.712,120.344l-0.203,0.007c0.093-0.001,0.188-0.004,0.282-0.003L149.712,120.344z"/>
	<path fill="#DDDEDD" d="M228.563,178.023c-3.126,3.568-6.495,6.538-9.895,9.01c-1.699,1.232-3.402,2.328-5.089,3.325
		c-3.752,2.22-7.405,3.895-10.656,5.127c-7.171,2.722-12.386,3.374-12.386,3.374c4.323,1.734,9.444,1.12,12.913,0.328
		c2.384-0.54,3.995-1.164,3.995-1.164c0.11,1.494,0.093,2.884-0.011,4.192c-0.118,1.448-0.361,2.779-0.696,4.012l-0.027,0.105
		l-0.002,0.008c-0.424,1.524-0.989,2.887-1.659,4.11c-0.072,0.131-0.143,0.272-0.217,0.399l0.247-0.182
		c1.197-0.86,2.374-1.77,3.537-2.72l0.025-0.022c0.875-0.713,1.735-1.454,2.584-2.218c1.419-1.289,2.816-2.635,4.161-4.075
		l0.004-0.003l0.006-0.006c0.076-0.087,0.156-0.174,0.236-0.26c1.328-1.485,2.553-2.996,3.678-4.519
		c1.486-2.009,2.793-4.037,3.953-6.052l0.088-0.146c0.28-0.497,0.557-0.99,0.822-1.478l0.076-0.143
		c0.087-0.166,0.162-0.325,0.247-0.489c0.369-0.703,0.732-1.403,1.069-2.098c0.078-0.166,0.162-0.335,0.242-0.501
		c0.173-0.367,0.339-0.733,0.504-1.096c0.126-0.283,0.253-0.565,0.373-0.845c0.131-0.304,0.266-0.611,0.396-0.913
		c0.228-0.55,0.449-1.096,0.658-1.635c0.084-0.215,0.16-0.423,0.24-0.634c0.16-0.421,0.312-0.835,0.459-1.245
		c0.067-0.191,0.135-0.381,0.2-0.572l0.059-0.178c0.181-0.517,0.354-1.029,0.514-1.531
		C228.994,177.539,228.778,177.779,228.563,178.023z"/>
	<path fill="#9D9E9D" d="M135.597,150.044c-0.957,0.46-2.005,1.001-3.105,1.625c-2.93,1.664-6.214,3.922-9.011,6.824
		c-0.349,0.362-0.692,0.735-1.025,1.118c-0.567,0.653-1.1,1.341-1.604,2.054c-0.059,0.081-0.12,0.159-0.176,0.241
		c-0.077,0.11-0.149,0.223-0.224,0.334c-0.191,0.285-0.375,0.576-0.554,0.871c-0.072,0.118-0.145,0.236-0.215,0.356
		c-0.234,0.403-0.46,0.811-0.67,1.232c-0.205,0.413-0.399,0.837-0.58,1.265c-1.442,3.445-2.011,7.424-1.117,11.977l0.003-0.049
		l0.002-0.035c0.003-0.042,0.008-0.102,0.014-0.175l0.002-0.039c0.008-0.071,0.015-0.156,0.025-0.249l0.007-0.058
		c0.012-0.108,0.028-0.232,0.045-0.365l0.013-0.089c0.019-0.145,0.042-0.3,0.069-0.468l0.001-0.003
		c0.027-0.166,0.061-0.345,0.097-0.531l0.021-0.114c0.039-0.188,0.081-0.386,0.128-0.593l0.024-0.099
		c0.047-0.193,0.098-0.394,0.153-0.599l0.026-0.096c0.061-0.223,0.13-0.454,0.204-0.688l0.048-0.146
		c0.078-0.24,0.16-0.483,0.253-0.732v-0.002c0.003-0.009,0.008-0.018,0.012-0.027c0.138-0.372,0.298-0.753,0.471-1.136
		c0.068-0.146,0.131-0.289,0.202-0.437l0.058-0.122l0.001-0.003c0.15-0.303,0.314-0.606,0.491-0.909
		c0.143-0.247,0.298-0.495,0.46-0.74c0.05-0.078,0.106-0.154,0.158-0.232c0.13-0.189,0.266-0.378,0.408-0.563
		c0.059-0.076,0.115-0.152,0.174-0.226c0.194-0.245,0.396-0.487,0.612-0.723l0.019-0.021v0.001l0.001-0.001
		c0,0-3.006,9.982-0.255,17.258c0-0.002-0.004-0.023-0.01-0.063c-0.002-0.013-0.003-0.03-0.007-0.048
		c-0.006-0.041-0.011-0.088-0.019-0.152c-0.002-0.012-0.003-0.027-0.006-0.04c-0.01-0.078-0.019-0.167-0.03-0.273
		c-0.002-0.013-0.003-0.028-0.004-0.042c-0.011-0.112-0.022-0.237-0.032-0.375c-0.002-0.014-0.002-0.028-0.004-0.041
		c-0.01-0.144-0.019-0.299-0.029-0.466c-0.001-0.014-0.001-0.028-0.002-0.042c-0.008-0.171-0.013-0.351-0.016-0.542
		c0-0.015,0-0.03,0-0.046c-0.005-0.191-0.003-0.391,0-0.599c0-0.019,0-0.037,0.001-0.056c0.004-0.223,0.013-0.453,0.027-0.691
		l0.003-0.056l0.006-0.121l0.002-0.005c0.018-0.267,0.046-0.543,0.082-0.823c0.002-0.019,0.005-0.037,0.007-0.056
		c0.036-0.274,0.08-0.552,0.131-0.831c0.017-0.087,0.031-0.171,0.049-0.257l0.035-0.18l0.001-0.003
		c0.051-0.231,0.111-0.463,0.177-0.695l0.01-0.039l0.002-0.002c0.093-0.322,0.208-0.641,0.335-0.958
		c0.032-0.085,0.068-0.167,0.103-0.25c0.136-0.314,0.283-0.624,0.457-0.921l0.006-0.013l0,0h0.001l0,0c0,0,0.049,2.358,0.459,5.122
		c0.064,0.436,0.14,0.881,0.224,1.33c0.057,0.299,0.112,0.597,0.178,0.896c-0.183-3.003,0.011-5.868,0.48-8.576
		c0.129-0.747,0.285-1.479,0.455-2.202c0.025-0.103,0.048-0.207,0.071-0.311c0.166-0.684,0.349-1.354,0.547-2.014
		c0.036-0.124,0.075-0.247,0.112-0.37c0.202-0.654,0.417-1.298,0.645-1.926c0.036-0.099,0.072-0.194,0.109-0.291
		c0.49-1.316,1.03-2.577,1.609-3.78c0.042-0.087,0.084-0.176,0.126-0.263c0.221-0.45,0.451-0.886,0.679-1.318
		c0.061-0.115,0.118-0.235,0.179-0.348c0.055-0.103,0.11-0.204,0.165-0.305c0.293-0.535,0.592-1.058,0.894-1.565
		c0.048-0.081,0.097-0.161,0.145-0.241c0.316-0.521,0.634-1.031,0.953-1.52l0.017-0.029c0.405-0.618,0.811-1.211,1.218-1.779
		c0.295-0.416,0.59-0.818,0.885-1.205c0.11-0.146,0.226-0.29,0.341-0.438c0.706-0.914,1.393-1.742,2.036-2.48
		c1.933-2.217,3.478-3.629,4.018-4.102c-0.342,0.133-0.744,0.295-1.191,0.482C137.222,149.29,136.446,149.635,135.597,150.044z"/>
	<path fill="#9D9E9D" d="M188.612,122.177c0,0-0.049-0.239-0.184-0.593c-0.512-1.342-2.283-4.435-7.603-3.248
		c-5.561,1.242-6.885,6.018-7.176,7.625c-0.061,0.333-0.08,0.54-0.08,0.54l0.169,0.112c0.639-0.696,2.009-0.793,3.341-0.163
		c0.611,0.288,1.115,0.686,1.482,1.123v0.001c0.565,0.674,0.797,1.448,0.535,2.077c-0.055,0.133-0.133,0.252-0.226,0.359
		c0,0,0.228,0.056,0.607,0.117c1.621,0.266,6.071,0.637,8.04-2.685c0.093-0.159,0.194-0.309,0.276-0.485
		c-0.491-0.178-0.833-0.823-0.934-1.628c-0.051-0.384-0.049-0.805,0.025-1.235C187.107,122.776,187.886,121.916,188.612,122.177z"/>
	<path fill="#DDDEDD" d="M165.852,166.988c-3.548,1.203-6.663,2.159-9.085,2.864c0.141,0.001,0.274,0.001,0.421,0.001
		c4.195,0,10.85-0.198,18.746-1.672c14.366-2.683,32.854-9.604,48.213-27.355l0.038-0.068v-0.002l-0.004-0.026
		c-0.103-1.313-0.571-3.651-2.449-5.281c-0.329-0.286-0.704-0.548-1.121-0.781c-0.07-0.031-0.135-0.065-0.207-0.094
		c-0.485-0.198-0.913-0.405-1.313-0.614c-0.329-0.153-0.643-0.31-0.925-0.468l-0.044-0.05c-0.871,1.662-1.924,3.27-3.134,4.826
		c-0.426,0.55-0.889,1.087-1.353,1.624c-4.237,4.892-9.96,9.24-16.25,13.017C186.93,159.183,174.961,163.9,165.852,166.988z"/>
	<path fill="#9D9E9D" d="M71.095,153.168c-0.143,0.159-0.285,0.315-0.414,0.489l-0.139,0.196c-0.149,0.217-0.292,0.441-0.423,0.674
		l-0.068,0.116c-0.16,0.295-0.306,0.601-0.442,0.911l-0.001,0.002l-0.017,0.04v0.003l-0.053,0.136
		c-0.03,0.076-0.059,0.153-0.09,0.229c-0.074,0.193-0.155,0.381-0.224,0.576l-0.002,0.006l-0.003,0.007l-0.005,0.016l-0.023,0.073
		l-0.025,0.073c-0.103,0.305-0.194,0.608-0.278,0.907c-0.237,0.838-0.403,1.63-0.519,2.287c-0.042,0.234-0.077,0.456-0.106,0.651
		c-0.062,0.423-0.102,0.753-0.118,0.914l-0.001,0.014l-0.011,0.108v-0.002v0.002l-0.005-0.125c-0.018-0.244-0.018-0.489-0.03-0.733
		c-0.026-0.514-0.056-1.028-0.064-1.54c-0.008-0.431,0.008-0.855,0.015-1.284c0.001-0.134,0.006-0.269,0.008-0.402
		c0.004-0.198,0.006-0.394,0.013-0.592c0.007-0.185,0.025-0.367,0.035-0.549l0.001-0.012v-0.002l0.011-0.203l0.005-0.055
		c0.014-0.224,0.027-0.447,0.041-0.67c0.007-0.086,0.01-0.171,0.016-0.258l0.013-0.154l0.001-0.028
		c0.007-0.073,0.013-0.147,0.018-0.22c0.009-0.09,0.022-0.18,0.03-0.266c0.032-0.326,0.071-0.649,0.107-0.971l0.006-0.054
		c0.027-0.24,0.048-0.481,0.078-0.719l0.002-0.01l0.004-0.017l0.009-0.069c0.065-0.489,0.143-0.97,0.22-1.453l0.02-0.132
		l0.021-0.134c0.015-0.089,0.026-0.184,0.042-0.273c0.133-0.786,0.281-1.563,0.445-2.326l0.023-0.094
		c0.14-0.649,0.287-1.288,0.445-1.918l0.017-0.072c0.072-0.278,0.148-0.546,0.221-0.82l0.011-0.042
		c0.111-0.409,0.217-0.822,0.331-1.221l0.004-0.004v-0.001l0.001-0.006l0.014-0.05c0.03-0.1,0.103-0.343,0.217-0.699l0.003-0.008
		l0.014-0.047v-0.003c0.044-0.14,0.086-0.278,0.129-0.419c0.069-0.228,0.138-0.453,0.208-0.676l0.062-0.197
		c-0.145-0.055-0.295-0.104-0.443-0.156l-0.083-0.03l-0.159-0.056c-0.958-0.321-1.951-0.549-2.97-0.682l-0.16-0.019
		c-0.653-0.08-1.313-0.12-1.981-0.114h-0.001c-0.387,0.004-0.775,0.017-1.165,0.049c-0.324,0.027-0.649,0.063-0.974,0.109
		c-0.488,0.072-0.967,0.173-1.437,0.286c-0.148,0.036-0.292,0.081-0.437,0.119c-0.232,0.066-0.459,0.139-0.687,0.21
		c-0.09,0.031-0.184,0.055-0.272,0.087c-0.161,0.054-0.318,0.109-0.475,0.171c-0.309,0.117-0.611,0.244-0.907,0.38
		c-0.136,0.063-0.277,0.118-0.41,0.185c-0.401,0.199-0.793,0.411-1.172,0.639c-0.152,0.091-0.291,0.192-0.438,0.286
		c-0.174,0.113-0.342,0.231-0.512,0.347L56.037,144c-0.184,0.135-0.362,0.278-0.541,0.418c-0.166,0.132-0.333,0.27-0.491,0.41
		c-0.194,0.167-0.383,0.336-0.567,0.51c-0.114,0.109-0.222,0.224-0.334,0.335c-0.297,0.302-0.574,0.62-0.846,0.943
		c-0.139,0.167-0.274,0.338-0.407,0.509c-0.236,0.3-0.463,0.604-0.674,0.921l-0.107,0.159c-0.112,0.171-0.21,0.349-0.314,0.525
		l-0.014,0.025l-0.015,0.024c-0.069,0.119-0.144,0.234-0.21,0.355l-0.027,0.048l-0.027,0.048l-0.002,0.004l-0.001,0.003
		c-0.409,0.758-0.752,1.551-1.034,2.367c-0.042,0.117-0.076,0.235-0.114,0.351c-0.128,0.399-0.239,0.803-0.337,1.214
		c-0.038,0.163-0.084,0.321-0.116,0.485v0.002l-0.002,0.002c0.043,0.097,0.087,0.189,0.131,0.284c0.15,0.336,0.302,0.66,0.459,0.975
		l0.055,0.108l0.055,0.108c0.164,0.323,0.329,0.631,0.497,0.932c0.511,0.918,1.031,1.731,1.534,2.445
		c0.074,0.106,0.149,0.216,0.224,0.317l0.055,0.074l0.067,0.088c0.377,0.508,0.736,0.953,1.069,1.34
		c0.527,0.615,0.981,1.078,1.3,1.387c0.068,0.067,0.129,0.123,0.186,0.176c0.048,0.044,0.091,0.084,0.129,0.118
		c0.122,0.109,0.196,0.17,0.196,0.171c-0.061-0.167-0.104-0.335-0.16-0.503c-0.405-1.202-0.687-2.407-0.867-3.596l-0.01-0.07
		l-0.021-0.139c-0.108-0.762-0.19-1.521-0.221-2.267l0,0l0,0c0.113,0.274,0.232,0.537,0.352,0.798
		c0.178,0.391,0.36,0.772,0.545,1.137l0.065,0.131l0.025,0.048c0.805,1.553,1.661,2.837,2.439,3.86
		c0.931,1.227,1.751,2.075,2.235,2.537c0.097,0.092,0.181,0.17,0.249,0.231c0.135,0.124,0.211,0.186,0.211,0.186
		c-0.468-1.275-0.78-2.552-0.987-3.816c-0.07-0.425-0.139-0.852-0.185-1.273c-0.058-0.538-0.097-1.068-0.117-1.595l0.001,0.001
		v-0.001c0.343,0.862,0.715,1.653,1.098,2.395l0.029,0.056c1.378,2.667,2.907,4.565,3.937,5.672l0.119,0.122
		c0.177,0.188,0.333,0.346,0.476,0.487c0.095,0.094,0.187,0.185,0.261,0.254c0.099,0.092,0.174,0.16,0.232,0.211
		c0.072,0.065,0.121,0.106,0.121,0.106l-0.06-0.178c-0.064-0.178-0.123-0.355-0.181-0.534c-0.208-0.639-0.373-1.279-0.516-1.916
		c-0.096-0.424-0.188-0.85-0.255-1.272c-0.065-0.402-0.114-0.801-0.157-1.2c-0.007-0.071-0.012-0.143-0.02-0.214
		c-0.02-0.207-0.041-0.413-0.055-0.618l-0.008-0.128l-0.004-0.091c-0.032-0.527-0.052-1.049-0.051-1.565l0.002,0.001v-0.001
		c0.139,0.324,0.286,0.638,0.434,0.943c0.111,0.231,0.225,0.451,0.339,0.671l0.024,0.046l0.039,0.075l0.068,0.135
		c0.14,0.264,0.281,0.516,0.423,0.765c0.266,0.465,0.533,0.901,0.799,1.31c0.327,0.501,0.65,0.962,0.963,1.38
		c0.176,0.238,0.348,0.46,0.517,0.671c0.214,0.266,0.419,0.514,0.614,0.737c0.178,0.205,0.342,0.385,0.5,0.554
		c0.04,0.043,0.079,0.086,0.116,0.126c0.147,0.153,0.285,0.298,0.406,0.418c0.093,0.092,0.178,0.174,0.254,0.247
		c0.2,0.189,0.341,0.312,0.401,0.364l0.037,0.03l0.119,0.062c0-0.094,0-0.187,0-0.282c-0.002-0.825,0.009-1.66,0.03-2.49
		c0.002-0.099,0.004-0.199,0.007-0.298c0.027-0.935,0.062-1.865,0.107-2.766c0.005-0.118,0.012-0.23,0.017-0.346l0.005-0.059
		c0.006-0.105,0.01-0.209,0.017-0.314c0.008-0.155,0.015-0.31,0.025-0.463c0.042-0.713,0.086-1.404,0.132-2.06
		c0.043-0.593,0.087-1.154,0.129-1.683l0.014-0.169c0.006-0.084,0.013-0.16,0.019-0.239c0.008-0.078,0.013-0.158,0.021-0.237
		l0.002-0.028c0.011-0.133,0.023-0.269,0.034-0.395l0.002-0.034c0.012-0.124,0.021-0.228,0.032-0.344
		c0.015-0.183,0.032-0.37,0.049-0.538l0.005-0.049c0.013-0.137,0.026-0.277,0.038-0.403c0.018-0.182,0.035-0.347,0.049-0.506
		l0.002-0.005v-0.005c0.008-0.089,0.017-0.169,0.025-0.252l0.002-0.016c0.008-0.076,0.015-0.153,0.023-0.222
		c0.017-0.167,0.032-0.317,0.046-0.433l0.011-0.105l0.006-0.038l0.013-0.122l0.01-0.086l0.002-0.011l-0.011,0.011L71.095,153.168z"
		/>
	<path fill="#DDDEDD" d="M193.272,179.042c1.307-0.642,2.449-1.171,3.32-1.687c1.752-1.019,2.681-1.671,2.591-1.861
		c-0.089-0.192-1.187,0.097-3.092,0.784c-0.953,0.353-2.121,0.702-3.453,1.18c-0.66,0.248-1.4,0.436-2.161,0.683
		c-0.767,0.234-1.57,0.508-2.431,0.712c-1.691,0.458-3.628,0.924-5.689,1.427c-1.018,0.211-2.068,0.43-3.151,0.655
		c-1.096,0.192-2.222,0.388-3.379,0.591c-4.631,0.713-9.785,1.141-15.122,0.829c-2.812-0.142-6.648-0.934-9.48-2.107l-0.103-0.044
		c0.873-5.715,6.53-7.218,6.53-7.218l-0.171-0.028c-0.097,0-0.194,0.003-0.293,0.003c-0.851,0-1.6-0.008-2.239-0.014
		c-0.46-0.005-0.862-0.009-1.201-0.009c-0.325,0-0.559,0.004-0.693,0.011c-3.497,0.194-5.03,3.366-5.529,4.72
		c-0.072,0.193-0.135,0.394-0.196,0.597c-0.36,1.201-0.527,2.559-0.445,3.961c0.152,2.615,1.172,5.381,3.463,7.559
		c1.532,1.471,4.018,2.626,7.152,3.394c-2.816-1.326-5.498-4.18-6.288-9.172c3.113,0.903,6.651,1.251,9.296,1.391
		c5.666,0.331,11.029-0.212,15.797-1.103c1.187-0.251,2.346-0.483,3.466-0.738c1.119-0.289,2.203-0.569,3.253-0.839
		c2.036-0.611,3.914-1.187,5.666-1.809c0.879-0.28,1.678-0.63,2.443-0.943C191.892,179.64,192.619,179.374,193.272,179.042z"/>
	<path fill="#5C5C5C" d="M180.642,114.999c2.903-0.293,4.983,0.381,6.459,1.556c0.158-1.329,0.122-2.893-0.185-4.554
		c-0.341-1.817-0.928-3.421-1.638-4.646c-0.287-0.712-1.697-2.677-3.128-2.381c-1.849,0.344-2.715,4.04-1.933,8.26
		C180.332,113.851,180.479,114.438,180.642,114.999z"/>
	<path fill="#5C5C5C" d="M146.769,123.81c3.345-0.937,6.413-0.529,8.504-0.179c0.957,0.158,1.709,0.304,2.192,0.304
		c0.318,0.005,0.527-0.053,0.596-0.215c0.209-0.165-0.451-0.927-1.771-1.686c-0.259-0.15-0.546-0.299-0.854-0.443l-0.015-0.006
		c-0.306-0.143-0.637-0.281-0.989-0.409l-0.01-0.004l-0.023-0.008c-0.295-0.106-0.609-0.205-0.934-0.295l-0.084-0.025
		c-0.322-0.087-0.654-0.163-1.001-0.229l-0.162-0.03c-0.341-0.06-0.693-0.109-1.058-0.147l-0.196-0.016
		c-0.369-0.033-0.748-0.051-1.138-0.053c-0.091-0.001-0.186,0.002-0.28,0.003c-0.175,0.002-0.352,0.008-0.529,0.017
		c-0.109,0.005-0.215,0.012-0.325,0.02c-0.183,0.013-0.367,0.03-0.556,0.051c-0.107,0.012-0.213,0.024-0.324,0.038
		c-0.202,0.028-0.409,0.061-0.616,0.097c-0.095,0.016-0.188,0.03-0.285,0.05c-0.304,0.057-0.613,0.126-0.925,0.205l-0.131,0.043
		c-0.223,0.066-0.432,0.141-0.645,0.212c-0.223,0.074-0.455,0.145-0.67,0.224c-0.234,0.089-0.449,0.188-0.674,0.283
		c-0.196,0.084-0.398,0.163-0.586,0.251c-0.225,0.105-0.434,0.221-0.645,0.333c-0.169,0.089-0.344,0.171-0.506,0.264
		c-0.213,0.121-0.409,0.25-0.611,0.378c-0.143,0.088-0.295,0.174-0.428,0.266c-0.205,0.137-0.392,0.278-0.582,0.419
		c-0.116,0.086-0.24,0.169-0.352,0.256c-0.2,0.156-0.38,0.314-0.563,0.473c-0.084,0.073-0.179,0.147-0.261,0.221
		c-0.2,0.177-0.38,0.358-0.557,0.535l-0.165,0.159c-0.223,0.229-0.428,0.457-0.617,0.679c-1.328,1.573-1.802,2.898-1.463,3.049
		c0.091,0.086,0.259,0.066,0.47-0.024c1.237-0.494,4.431-3.424,9.102-4.864C146.322,123.94,146.543,123.872,146.769,123.81z"/>
	<path fill="#5A5B5B" d="M186.894,125.352c0.103,0.804,0.443,1.449,0.936,1.628c0.733,0.26,1.503-0.604,1.727-1.924
		c0.021-0.116,0.029-0.23,0.042-0.342v-0.003c0.103-1.188-0.289-2.276-0.951-2.512c-0.727-0.263-1.503,0.599-1.729,1.919
		C186.845,124.545,186.843,124.967,186.894,125.352z"/>
	<path fill="#5A5B5B" d="M174.008,129.037c0.369,0.461,0.889,0.887,1.528,1.189c1.349,0.637,2.745,0.533,3.369-0.194
		c0.093-0.106,0.171-0.225,0.225-0.359c0.264-0.629,0.034-1.401-0.533-2.077l-0.002-0.002c-0.365-0.437-0.869-0.834-1.478-1.123
		c-1.334-0.631-2.704-0.534-3.343,0.163c-0.103,0.115-0.194,0.241-0.255,0.387C173.264,127.63,173.479,128.375,174.008,129.037
		L174.008,129.037z"/>
	<g>
		<path fill="#5C5C5C" d="M224.187,140.764v-0.003l-0.004-0.025l-0.065,0.128c0.011-0.011,0.021-0.022,0.03-0.033L224.187,140.764z"
			/>
		<path fill="#5C5C5C" d="M226.021,167.774l-0.059,0.072c-1.551,1.898-3.409,3.78-5.485,5.611
			c-9.106,8.035-22.369,15.03-32.066,17.578l-0.038,0.009l-0.036,0.011c-7.268,2.1-14.505,3.211-20.932,3.211
			c-3.693,0-7.064-0.381-9.905-1.079c-3.132-0.77-5.618-1.923-7.15-3.395c-2.291-2.178-3.31-4.944-3.463-7.559
			c-0.082-1.401,0.086-2.76,0.445-3.961c0.061-0.203,0.124-0.403,0.196-0.596c0.496-1.355,2.032-4.526,5.529-4.72
			c0.133-0.008,0.367-0.012,0.691-0.012c0.339,0,0.74,0.005,1.201,0.009c0.641,0.008,1.391,0.015,2.241,0.015
			c0.097,0,0.194-0.004,0.293-0.004c9.692-0.025,18.86-1.291,27.422-3.714c12.426-3.516,23.563-9.486,33.08-17.816
			c0.504-0.44,1.003-0.886,1.495-1.339l4.639-9.229c-15.352,17.725-33.826,24.641-48.183,27.322
			c-7.896,1.475-14.551,1.672-18.746,1.672c-0.148,0-0.278-0.001-0.42-0.002c-1.26-0.004-2.289-0.022-3.021-0.022
			c-0.365,0-0.658,0.005-0.881,0.018c-1.094,0.061-2.106,0.324-3.033,0.744c-1.893,0.861-3.407,2.4-4.454,4.319
			c-1.29,2.366-1.859,5.306-1.533,8.265c0.268,2.435,1.149,4.877,2.74,7.018c0.065,0.087,0.124,0.176,0.19,0.262
			c0.183,0.234,0.377,0.462,0.576,0.687c0.27,0.306,0.552,0.607,0.856,0.896c3.495,3.359,10.361,5.329,19.195,5.329
			c5.974,0,12.856-0.916,20.194-2.899c21.52-6.716,31.101-15.13,35.314-20.729c0.306-0.409,0.59-0.804,0.843-1.181
			c1.484-2.214,2.072-3.847,2.275-4.547l0.027-0.095c0.051-0.181,0.068-0.276,0.07-0.281L226.021,167.774z"/>
	</g>
	<path fill="#1F2535" d="M187.714,14.619c-1.977-1.735-4.172-2.961-6.499-3.785c-0.422-0.102-0.847-0.204-1.279-0.274
		c-0.221-0.11-0.443-0.215-0.67-0.315c-2.03-0.513-4.142-0.754-6.29-0.776c-10.649-0.107-22.137,5.126-28.641,8.647
		c-0.358,0.201-0.715,0.401-1.081,0.61c-0.544,0.312-1.092,0.63-1.648,0.959c-0.93,0.55-1.876,1.122-2.837,1.715
		c-0.139,0.086-0.278,0.174-0.417,0.26l-2.108-1.933l-0.951-0.871l-0.879-0.808l-0.379-0.347l-8.008-7.339l-0.695-0.637
		l-0.859-0.789l-0.132,0.047l-1.937,0.686l-2.238,0.793c-1.34-0.44-2.901-0.681-4.675-0.692c-3.553-0.026-7.95,0.906-12.858,2.814
		c-4.911,1.902-10.332,4.76-15.996,8.473c-11.336,7.42-23.649,18.247-35.158,31.546c-4.016,4.639-7.717,9.331-11.08,13.996
		c-3.263,4.524-6.208,9.026-8.805,13.428c-5.275,8.939-9.118,17.482-11.335,24.958c-1.478,4.982-2.228,9.486-2.247,13.268
		c-0.018,2.75,0.351,5.109,1.037,7.014c0.222,0.617,0.486,1.169,0.77,1.694c0.593,1.102,1.312,2.028,2.187,2.789l8.776,7.254
		l0.941,0.777l0.045-0.066c0.208-0.304,0.416-0.608,0.634-0.906l0.058-0.08c0.078-0.107,0.16-0.209,0.24-0.314
		c0.206-0.272,0.413-0.544,0.626-0.812c0.132-0.165,0.267-0.325,0.405-0.488c0.131-0.157,0.257-0.319,0.392-0.475
		c0.061-0.07,0.125-0.137,0.185-0.206c0.143-0.163,0.291-0.324,0.438-0.485c0.205-0.225,0.412-0.447,0.623-0.668
		c0.126-0.128,0.25-0.257,0.377-0.384l0.057-0.054c0.225-0.224,0.451-0.445,0.681-0.66c0.145-0.139,0.29-0.274,0.437-0.409
		c0.238-0.217,0.482-0.432,0.73-0.643c0.146-0.126,0.292-0.253,0.443-0.376c0.252-0.212,0.511-0.418,0.771-0.621
		c0.151-0.118,0.297-0.235,0.449-0.348c0.272-0.207,0.549-0.404,0.826-0.602c0.15-0.104,0.294-0.211,0.442-0.313l0.167-0.116
		l0.027-0.018c0.235-0.159,0.478-0.309,0.719-0.462c0.134-0.087,0.264-0.175,0.4-0.26c0.203-0.126,0.411-0.244,0.617-0.365
		c0.179-0.105,0.358-0.211,0.538-0.313l0.202-0.117c0.457-0.254,0.921-0.497,1.391-0.729c0.149-0.076,0.302-0.142,0.453-0.215
		c0.164-0.076,0.325-0.153,0.49-0.227l0.19-0.092c0.098-0.041,0.196-0.088,0.294-0.13c0.201-0.087,0.406-0.167,0.609-0.252
		l0.15-0.063c0.236-0.096,0.469-0.193,0.708-0.283c0.222-0.087,0.447-0.164,0.671-0.244c0.276-0.098,0.553-0.198,0.834-0.29
		c0.116-0.038,0.232-0.077,0.349-0.115c0.119-0.037,0.239-0.069,0.359-0.106c0.274-0.084,0.552-0.166,0.831-0.243
		c0.245-0.068,0.491-0.13,0.736-0.195c0.199-0.048,0.394-0.1,0.593-0.147c0.081-0.018,0.162-0.034,0.243-0.051
		c0.091-0.021,0.177-0.045,0.27-0.064l0.15-0.026c0.995-0.16,2.091-0.282,3.298-0.335l0.187-0.009
		c1.22-0.044,2.549-0.007,3.957,0.122c0.335,0.03,0.672,0.06,1.019,0.103c0.056-0.138,0.111-0.278,0.166-0.416
		c0.573-1.39,1.159-2.75,1.754-4.088c3.484-7.804,7.391-14.726,11.492-20.846c1.4-2.09,2.822-4.089,4.258-5.994
		c5.981-7.939,12.19-14.305,17.96-19.334c1.282-1.118,2.544-2.17,3.775-3.158c1.675-1.345,3.299-2.574,4.85-3.69
		c1.261-0.908,2.479-1.744,3.635-2.509c1.926-1.273,3.693-2.35,5.252-3.248c0.479-0.277,0.944-0.539,1.385-0.782
		c0.683-0.378,1.313-0.713,1.888-1.012c-0.525,0.008-1.055,0.03-1.594,0.063c-0.503,0.034-1.013,0.086-1.527,0.145
		c-0.129,0.015-0.259,0.031-0.388,0.048c-0.518,0.068-1.038,0.143-1.566,0.238c-0.999,0.181-2.013,0.407-3.046,0.697
		c-0.344,0.097-0.69,0.201-1.039,0.313c2.452-1.662,4.911-2.983,7.307-4.041c1.592-0.704,3.16-1.294,4.676-1.779
		c2.09-0.669,4.083-1.148,5.933-1.491c1.24-0.228,2.416-0.396,3.508-0.516c1.1-0.12,2.112-0.191,3.027-0.231
		c3.2-0.137,5.167,0.121,5.167,0.121c-0.525-0.58-1.157-1.065-1.832-1.474c-1.225-0.737-2.587-1.207-3.775-1.513
		c-0.468-0.121-0.909-0.222-1.298-0.294c-0.308-0.058-0.596-0.106-0.83-0.14c0.523-0.156,1.043-0.295,1.554-0.427
		c0.542-0.14,1.081-0.269,1.613-0.382c4.517-0.969,8.558-1.049,11.625-0.849c3.7,0.242,5.987,0.893,5.987,0.893
		c-0.634-0.946-1.501-1.713-2.424-2.338c-0.673-0.455-1.372-0.835-2.034-1.142c1.246,0.136,2.439,0.313,3.571,0.518
		c3.002,0.54,5.584,1.278,7.631,1.982c0.664,0.228,1.273,0.452,1.819,0.665c0.156,0.062,0.301,0.12,0.445,0.178
		c1.887,0.759,2.951,1.337,2.951,1.337c-0.421-1.008-1.14-1.92-1.946-2.722c-0.202-0.201-0.407-0.4-0.616-0.584l0.089,0.03
		c0.068,0.012,0.213,0.04,0.413,0.082c0.148,0.03,0.324,0.07,0.537,0.12c0.805,0.189,2.041,0.519,3.508,1.045
		c0.068,0.024,0.143,0.05,0.215,0.077c0.198,0.073,0.4,0.149,0.607,0.229c0.504,0.194,1.029,0.414,1.568,0.653
		c0.5,0.225,1.012,0.465,1.53,0.732c0.268,0.137,0.537,0.28,0.805,0.427c0.573,0.317,1.147,0.662,1.72,1.036
		c0.586,0.382,1.168,0.796,1.737,1.243c0.112,0.089,0.226,0.175,0.339,0.267c0.415,0.338,0.82,0.697,1.218,1.073
		c0.752,0.708,1.457,1.484,2.106,2.332c0.778,1.018,1.471,2.137,2.034,3.374c0.03,0.069,0.059,0.142,0.089,0.213
		c0.261-0.358,0.719-0.997,1.311-1.866C185.104,49.665,199.362,26.403,187.714,14.619z"/>
	<path fill="#7A7A7B" d="M118.764,19.088l-0.774-3.838l1.431-4.523l0,0l0.747-0.264c-1.34-0.44-2.901-0.681-4.675-0.692
		c-3.553-0.026-7.95,0.906-12.858,2.814c-4.911,1.902-10.332,4.76-15.996,8.473c-11.336,7.42-23.649,18.247-35.158,31.546
		c-4.016,4.639-7.717,9.331-11.08,13.996c-3.263,4.524-6.208,9.026-8.805,13.428c-5.275,8.939-9.118,17.482-11.335,24.958
		c-1.478,4.982-2.228,9.486-2.247,13.268c-0.018,2.75,0.351,5.109,1.037,7.014c0.222,0.617,0.486,1.169,0.77,1.694
		c0.593,1.102,1.312,2.028,2.187,2.789l8.776,7.254l0.941,0.777l0.045-0.066c0.208-0.304,0.416-0.608,0.634-0.906l0.058-0.08
		c0.078-0.107,0.16-0.209,0.24-0.314c0.206-0.272,0.413-0.544,0.626-0.812c0.132-0.165,0.267-0.325,0.405-0.488
		c0.131-0.157,0.257-0.319,0.392-0.475c0.061-0.07,0.125-0.137,0.185-0.206c0.143-0.163,0.291-0.324,0.438-0.485
		c0.205-0.225,0.412-0.447,0.623-0.668c0.126-0.128,0.25-0.257,0.377-0.384l0.057-0.054c0.225-0.224,0.451-0.445,0.681-0.66
		c0.145-0.139,0.29-0.274,0.437-0.409c0.238-0.217,0.482-0.432,0.73-0.643c0.146-0.126,0.292-0.253,0.443-0.376
		c0.252-0.212,0.511-0.418,0.771-0.621c0.151-0.118,0.297-0.235,0.449-0.348c0.272-0.207,0.549-0.404,0.826-0.602
		c0.15-0.104,0.294-0.211,0.442-0.313l0.167-0.116l0.007-0.032c1.254-5.396,3.39-11.345,6.326-17.628
		c3.606-7.717,8.409-15.931,14.283-24.241c3.695-5.227,7.808-10.492,12.305-15.69c5.819-6.72,11.841-12.814,17.855-18.189
		c4.053-3.62,8.097-6.897,12.081-9.822c0.375-0.277,0.753-0.562,1.13-0.832c1.063-0.765,2.119-1.494,3.169-2.206
		c2.289-1.549,4.549-2.976,6.765-4.261l-1.309-1.241l-0.214-0.203l-1.608-1.524l-9.225-8.753l-0.75-6.954l-0.101-0.09l5.496-2.374
		L118.764,19.088z"/>
	<polygon fill="#56A0D8" points="121.341,20.043 121.647,20.157 121.639,20.119 	"/>
	<path fill="#D9DAD9" d="M124.475,8.936l-5.054,1.79l2.218,9.393l-14.675-5.405l-5.496,2.374l0.101,0.09l19.083,17.169l0.147-0.121
		l0.203-0.162c0.483-0.396,0.968-0.79,1.457-1.18c0.171-0.137,0.34-0.279,0.513-0.415c0.705-0.558,1.415-1.107,2.128-1.654
		l-8.112-7.333l12.226,4.279l0.04-0.029c0.325-0.232,0.647-0.463,0.974-0.694l-2.045-8.124l5.961,5.443l0.063-0.04
		c0.417-0.276,0.826-0.538,1.239-0.807l0.127-0.082l0.198-0.131c0.072-0.044,0.143-0.091,0.213-0.137
		c0.173-0.112,0.352-0.232,0.527-0.342c0.034-0.023,0.068-0.044,0.105-0.067c0.586-0.374,1.163-0.733,1.739-1.092L124.475,8.936z"/>
	<polygon fill="#56A0D8" points="119.491,11.023 119.421,10.726 119.491,11.023 	"/>
	<path fill="#989998" d="M119.421,10.726l0.747-0.264c-1.34-0.44-2.901-0.681-4.675-0.692c-3.553-0.026-7.95,0.906-12.858,2.814
		c-4.911,1.902-10.332,4.76-15.996,8.473c-11.336,7.42-23.649,18.247-35.158,31.546c-4.016,4.639-7.717,9.331-11.08,13.996
		L58.35,83.937c3.68-5.171,7.747-10.363,12.184-15.492c5.935-6.854,12.077-13.07,18.228-18.568
		c5.961-5.323,11.922-9.95,17.732-13.811l-4.175-11.934l-0.75-6.954l-0.101-0.09l5.496-2.374l11.801,4.374l-0.774-3.838
		L119.421,10.726z"/>
	<polygon fill="#1F2535" points="119.421,10.726 117.99,15.249 118.764,19.088 121.639,20.119 	"/>
	<polygon fill="#1F2535" points="116.988,23.483 129.214,27.761 125.1,30.816 	"/>
	<polygon fill="#1F2535" points="128.183,18.914 130.228,27.038 134.144,24.358 	"/>
	<path fill="#FFFFFF" d="M171.541,10.684c0.708-0.113,1.404-0.204,2.093-0.27c1.95-0.191,3.803-0.177,5.584,0.05
		c0.095,0.012,0.194,0.014,0.289,0.029l0.023,0.003l0.07,0.008l0.175,0.029l0.162,0.029c-0.221-0.11-0.443-0.215-0.67-0.315
		c-2.03-0.513-4.142-0.754-6.29-0.776c-10.649-0.107-22.137,5.126-28.641,8.647c-0.358,0.201-0.715,0.401-1.081,0.61
		c-0.544,0.312-1.092,0.63-1.648,0.959c-0.93,0.55-1.876,1.122-2.837,1.715c-0.139,0.086-0.278,0.174-0.417,0.26
		c-0.576,0.36-1.153,0.718-1.739,1.092c-0.036,0.023-0.07,0.044-0.105,0.067c-0.175,0.11-0.354,0.23-0.527,0.342
		c-0.07,0.046-0.141,0.093-0.213,0.137l-0.198,0.131l-0.127,0.082c-0.413,0.268-0.822,0.531-1.239,0.807l-0.063,0.04
		c-0.011,0.008-0.023,0.017-0.036,0.025c-0.101,0.067-0.2,0.129-0.302,0.196l-0.053,0.034c-0.076,0.051-0.15,0.103-0.225,0.154
		c-0.637,0.425-1.273,0.861-1.906,1.298c-0.441,0.305-0.885,0.614-1.322,0.923l-0.07,0.051c-0.327,0.23-0.649,0.461-0.974,0.694
		l-0.04,0.029c-1.056,0.759-2.104,1.53-3.147,2.316c-0.108,0.083-0.218,0.162-0.328,0.244c-0.092,0.071-0.185,0.142-0.276,0.212
		c-0.087,0.065-0.171,0.132-0.256,0.197l-0.108,0.086c-0.713,0.547-1.423,1.096-2.128,1.654c-0.173,0.136-0.342,0.278-0.513,0.415
		c-0.489,0.39-0.974,0.784-1.457,1.18l-0.203,0.162l-0.147,0.121c-1.348,1.105-2.678,2.236-3.999,3.384
		c-2.182,1.897-4.331,3.842-6.443,5.841c-0.273,0.259-0.543,0.521-0.817,0.782c-5.526,5.286-10.805,10.881-15.813,16.635
		c-5.292,6.079-10.277,12.333-14.947,18.58c-2.546,3.237-4.723,6.126-6.488,8.546c-3.545,4.859-5.442,7.827-5.345,7.877
		c0.044,0.035,0.362-0.34,0.921-1.048c-0.451,0.672-0.906,1.342-1.349,2.009c7.74-10.495,16.417-21.332,25.89-31.694
		c5.751-6.289,11.79-12.405,18.092-18.159l0,0c2.764-2.523,5.575-4.974,8.436-7.343c0.916-0.759,1.838-1.51,2.764-2.251
		c0.46-0.368,0.928-0.729,1.391-1.093c0.264-0.208,0.526-0.416,0.79-0.62c0.498-0.387,0.995-0.769,1.495-1.15
		c0.488-0.372,0.977-0.744,1.47-1.111c0.255-0.191,0.512-0.383,0.769-0.574c0.624-0.462,1.254-0.917,1.884-1.369
		c0.375-0.271,0.752-0.542,1.128-0.81l0.004-0.002c1.189-0.843,2.388-1.663,3.592-2.471c0.097-0.068,0.198-0.133,0.299-0.201
		c0.188-0.125,0.377-0.251,0.565-0.376c0.251-0.166,0.498-0.336,0.748-0.499c0.095-0.063,0.19-0.128,0.283-0.189l0.038-0.025
		c0.173-0.111,0.339-0.216,0.508-0.326c0.036-0.023,0.072-0.044,0.106-0.068l0.061-0.039c0.527-0.341,1.052-0.676,1.572-1.006
		c0.095-0.06,0.192-0.124,0.285-0.184c0.173-0.108,0.337-0.208,0.506-0.314c0.607-0.38,1.212-0.757,1.809-1.124
		c0.164-0.099,0.331-0.207,0.493-0.305c0.087-0.051,0.171-0.102,0.257-0.152c0.169-0.103,0.339-0.204,0.51-0.307
		c0.702-0.422,1.402-0.841,2.089-1.24c0.628-0.367,1.237-0.707,1.851-1.056c3.468-1.966,6.745-3.662,9.812-5.066
		C161.759,13.136,166.923,11.433,171.541,10.684z"/>
</g>
</svg>
